<svg version="1.1" id="Layer_1" xmlns="http://www.w3.org/2000/svg" xmlns:xlink="http://www.w3.org/1999/xlink" x="0px" y="0px"
	 width="500px" height="500px" viewBox="0 0 500 500" enable-background="new 0 0 500 500" xml:space="preserve">
<path stroke-width="25" stroke-miterlimit="10" d="M105.769,392.673
	c-25.811,0-46.809,20.997-46.809,46.81c0,25.81,20.998,46.809,46.809,46.809s46.81-20.999,46.81-46.809
	C152.579,413.67,131.58,392.673,105.769,392.673z"/>
<path stroke-width="25" stroke-miterlimit="10" d="M418.342,392.673
	c-25.812,0-46.809,20.997-46.809,46.81c0,25.81,20.997,46.809,46.809,46.809s46.811-20.999,46.811-46.809
	C465.152,413.67,444.153,392.673,418.342,392.673z"/>
<path stroke-width="25" stroke-miterlimit="10" d="M484.44,138.396H376.209
	c-6.541-51.901-52.786-93.147-104.687-99.686V13.709h-18.934V38.71c-51.9,6.541-98.147,47.786-104.686,99.686H40.605V90.884H15.56
	v8.934h24.111v192.197H58.96v72.688h406.192v-72.688h19.288V138.396z"/>
</svg>
