<svg version="1.1" xmlns="http://www.w3.org/2000/svg" xmlns:xlink="http://www.w3.org/1999/xlink" x="0px" y="0px" width="500px"
	 height="500px" viewBox="0 0 500 500" enable-background="new 0 0 500 500" xml:space="preserve">
<g id="Layer_1">
	<path stroke-width="25" stroke-miterlimit="10" d="M354.364,135.536H205.64l0.014-24.626
		l-17.063,0.014v25.515c-51.848,6.521-98.637,47.726-105.158,99.573h-5.704c-33.56,0-60.863,27.303-60.863,60.863
		c0,18.596,8.383,35.271,21.567,46.443c-13.184,11.173-21.567,27.848-21.567,46.443c0,33.56,27.303,60.863,60.864,60.863h344.541
		c33.561,0,60.864-27.304,60.864-60.863c0-18.596-8.383-35.271-21.567-46.443c13.185-11.174,21.567-27.848,21.567-46.443
		c0-33.56-27.304-60.863-60.864-60.863h-18L366.243,49.375H168.906l0,0"/>
</g>
<g id="Layer_2">
	<path stroke-width="25" stroke-miterlimit="10" d="M79.98,235.556c1.645,0,333.882,0,333.882,0"/>
	<path stroke-width="25" stroke-miterlimit="10" d="M37.357,341.64c2.077,0,421.496,0,421.496,0"/>
</g>
</svg>
