<svg version="1.1" id="Layer_1" xmlns="http://www.w3.org/2000/svg" xmlns:xlink="http://www.w3.org/1999/xlink" x="0px" y="0px"
	 width="24px" height="24px" viewBox="0 0 24 24" enable-background="new 0 0 24 24" xml:space="preserve">
<path stroke-miterlimit="10" d="M4.052,1.909l2.688-1.25l3.819,7.457L7.984,9.383
	c-0.509,1.19,2.04,5.943,3.115,6.022c0.085-0.056,2.524-1.255,2.524-1.255l3.885,7.494c0,0-2.611,1.279-2.695,1.32
	C7.381,26.357-3.241,5.71,4.052,1.909z"/>
<path stroke-miterlimit="10" d="M16.034,11.163c0.212-0.706,0.151-1.492-0.228-2.189
	c-0.377-0.698-1.004-1.179-1.709-1.388"/>
<path stroke-miterlimit="10" d="M14.982,4.615c1.466,0.437,2.766,1.433,3.55,2.883
	c0.784,1.452,0.907,3.084,0.471,4.548"/>
<path stroke-miterlimit="10" d="M15.88,1.604c2.235,0.667,4.218,2.185,5.414,4.4
	c1.199,2.214,1.388,4.704,0.72,6.939"/>
</svg>
