<svg viewBox="0 0 313.56 281.07" xmlns="http://www.w3.org/2000/svg" xmlns:xlink="http://www.w3.org/1999/xlink"><linearGradient id="a" gradientUnits="userSpaceOnUse" x1="220" x2="69.27" y1="72.96" y2="295.41"><stop offset="0" stop-color="#008"/><stop offset="1" stop-color="#010020"/></linearGradient><linearGradient id="b" gradientUnits="userSpaceOnUse" x1="167.65" x2="41.84" y1="208.05" y2="108.68"><stop offset="0" stop-color="#008"/><stop offset="1" stop-color="#079eff"/></linearGradient><linearGradient id="c" gradientUnits="userSpaceOnUse" x1="310.27" x2="118.81" y1="111.45" y2="245.16"><stop offset="0" stop-color="#42b4dd"/><stop offset="1" stop-color="#1857c6"/></linearGradient><linearGradient id="d" gradientUnits="userSpaceOnUse" x1="35.58" x2="255.55" y1="200.12" y2="200.12"><stop offset="0" stop-color="#fecb3e"/><stop offset="1" stop-color="#fea13e"/></linearGradient><linearGradient id="e" x1="116.45" x2="228.59" xlink:href="#d" y1="167.06" y2="305.63"/><linearGradient id="f" gradientUnits="userSpaceOnUse" x1="50.38" x2="86.23" y1="64.88" y2="64.88"><stop offset="0" stop-color="#b20f61"/><stop offset="1" stop-color="#723075"/></linearGradient><linearGradient id="g" gradientTransform="matrix(.93257604 -.3609736 .3609736 .93257604 692.59 -166.83)" gradientUnits="userSpaceOnUse" x1="-619.91" x2="-587.62" y1="-9.48" y2="-32.55"><stop offset="0" stop-color="#7900df"/><stop offset="1" stop-color="#7972ff"/></linearGradient><linearGradient id="h" x1="257.73" x2="301.57" xlink:href="#d" y1="99.3" y2="99.3"/><linearGradient id="i" gradientTransform="matrix(.98185957 -.18960957 .18960957 .98185957 165.87 20.79)" x1="59.34" x2="102.28" xlink:href="#c" y1="39.17" y2="39.17"/><path d="m249.55 281.05h-182.33c-9.93 0-17-8.05-15.91-18l13.12-114.25a20.72 20.72 0 0 1 20-18h182.37c9.93 0 17.06 8.05 15.92 18l-13.13 114.27a20.71 20.71 0 0 1 -20.04 17.98z" fill="#b28a1a"/><path d="m82.7 229.79 6.44-149.64c.35-8.15 8.78-14.35 18.86-13.86l115.62 5.64c10 .48 17.9 7.49 17.55 15.63l-6.48 149.64c-.35 8.15-8.78 14.35-18.82 13.86l-115.61-5.63c-10.05-.49-17.91-7.49-17.56-15.64z" fill="url(#a)"/><path d="m191 214.63-148.7 17.9a14.64 14.64 0 0 1 -16.3-12.91l-10.6-93.28a14.88 14.88 0 0 1 13-16.43l148.7-17.91a14.65 14.65 0 0 1 16.32 12.91l10.58 93.29a14.9 14.9 0 0 1 -13 16.43z" fill="url(#b)"/><path d="m257.61 266-146.28-32.18a14.63 14.63 0 0 1 -11.14-17.57l20.81-91.53a14.89 14.89 0 0 1 17.7-11.23l146.3 32.18a14.64 14.64 0 0 1 11.15 17.57l-20.85 91.54a14.88 14.88 0 0 1 -17.69 11.22z" fill="url(#c)"/><path d="m239.83 281.05h-172.43a19.63 19.63 0 0 1 -19.09-17.37l-12.64-127.13a15.44 15.44 0 0 1 15.63-17.37h35.23a14.33 14.33 0 0 1 10.2 4.47l10 10.36a14.32 14.32 0 0 0 10.21 4.47h108.71a19.61 19.61 0 0 1 19.09 17.36l10.73 107.84a15.45 15.45 0 0 1 -15.64 17.37z" fill="url(#d)"/><path d="m239.83 281.05h-172.43c59 0 112.14-17.45 133.42-46.61 19.54-26.8 24.83-96 24.83-96a19.61 19.61 0 0 1 19.09 17.36l10.73 107.84a15.45 15.45 0 0 1 -15.64 17.41z" fill="url(#e)"/><path d="m101 130.23a14.76 14.76 0 0 0 5.59 3.63l-9.83-10.21a14.62 14.62 0 0 0 -5.61-3.65z" fill="#f99135"/><path d="m255.47 263.68-10.73-107.84a19.67 19.67 0 0 0 -11.8-15.84 19.22 19.22 0 0 1 6.07 12l10.73 107.84a15.44 15.44 0 0 1 -15.64 17.36h-172.43a18.3 18.3 0 0 1 -7.29-1.55 19.11 19.11 0 0 0 13 5.33h172.45a15.45 15.45 0 0 0 15.64-17.3z" fill="#f99135"/><path d="m220.46 146.48h20.59a19.42 19.42 0 0 0 -15.4-8h-108.74a14.32 14.32 0 0 1 -10.21-4.48l-10-10.36a14.33 14.33 0 0 0 -10.2-4.47h-35.2a15.44 15.44 0 0 0 -15.63 17.37l12.64 127.14a19.63 19.63 0 0 0 19.09 17.37h3.21a18.53 18.53 0 0 1 -18-16.39l-11.93-120a14.58 14.58 0 0 1 14.76-16.4h33.22a13.49 13.49 0 0 1 9.63 4.22l9.41 9.78a13.53 13.53 0 0 0 9.64 4.22h102.66z" fill="#ffe08c"/><path d="m255.17 260.75s1.64 11.39 6.62 11.39c2.89 0 2.86 0 6.07-3-1.25 2.16-3.67 8.07-12.39 11-4.06 1.37-8 .91-14.42.91z" fill="#f99135"/><circle cx="117.16" cy="194.71" fill="#fff" r="8.03"/><circle cx="177.48" cy="194.71" fill="#fff" r="8.03"/><path d="m147.53 230.43c7.38 0 13.57-4.29 15.22-10.06a2.42 2.42 0 0 0 -2.33-3.07h-25.78a2.41 2.41 0 0 0 -2.32 3.07c1.68 5.77 7.83 10.06 15.21 10.06z" fill="#fff"/><rect fill="#1f5161" height="14.37" rx="1.84" transform="matrix(-.70710678 .70710678 -.70710678 -.70710678 398.7 -153.58)" width="4.14" x="229.09" y="-1.4"/><rect fill="#1f5161" height="14.37" rx="1.84" transform="matrix(-.70710678 -.70710678 .70710678 -.70710678 390.53 173.33)" width="4.14" x="229.09" y="-1.4"/><rect fill="#1f5161" height="11.42" rx="1.46" transform="matrix(-1 0 0 -1 565.1 121.98)" width="3.29" x="280.91" y="55.28"/><rect fill="#1f5161" height="11.42" rx="1.46" transform="matrix(0 -1 1 0 221.56 343.54)" width="3.29" x="280.91" y="55.28"/><rect fill="#7972ff" height="9.25" rx="1.18" transform="matrix(-1 0 0 -1 343.28 97.16)" width="2.66" x="170.31" y="43.95"/><rect fill="#7972ff" height="9.25" rx="1.18" transform="matrix(0 -1 1 0 123.06 220.22)" width="2.66" x="170.31" y="43.95"/><g fill="#1f5161"><rect height="14.37" rx="1.84" transform="matrix(-1 0 0 -1 160.09 21.8)" width="4.14" x="77.98" y="3.71"/><rect height="14.37" rx="1.84" transform="matrix(0 -1 1 0 69.15 90.95)" width="4.14" x="77.98" y="3.71"/><rect height="14.37" rx="1.84" transform="matrix(-1 0 0 -1 612.76 273.34)" width="4.14" x="304.31" y="129.48"/><rect height="14.37" rx="1.84" transform="matrix(0 -1 1 0 169.71 443.05)" width="4.14" x="304.31" y="129.48"/><rect height="14.37" rx="1.84" transform="matrix(-1 0 0 -1 43.66 478.51)" width="4.14" x="19.76" y="232.07"/><rect height="14.37" rx="1.84" transform="matrix(0 -1 1 0 -217.42 261.09)" width="4.14" x="19.76" y="232.07"/></g><circle cx="205.75" cy="30.84" fill="#479bc2" r="6.7"/><circle cx="189.76" cy="59.53" fill="#42b4dd" r="4.25"/><circle cx="3.63" cy="218.06" fill="#7972ff" r="3.63"/><circle cx="14.65" cy="205.1" fill="#7972ff" r="2.91"/><circle cx="40.96" cy="96.4" fill="#7972ff" r="2.91"/><circle cx="290.1" cy="234.44" fill="none" r="4.24" stroke="#ffcc3f" stroke-miterlimit="10" stroke-width="3"/><circle cx="14.67" cy="73.98" fill="none" r="7.16" stroke="#ffcc3f" stroke-miterlimit="10" stroke-width="3"/><path d="m86.13 70.73-4.89-26.52a1.69 1.69 0 0 0 -2.24-1.27l-23.49 8.9a1.68 1.68 0 0 0 -1.06 1.88l3.89 21.11a6.18 6.18 0 1 0 4.32 4.8l-3.13-17 20.37-7.12 1.92 10.42a6.18 6.18 0 1 0 4.31 4.8zm-27.29-11.73-.68-3.71 20.29-7.69.78 4.28z" fill="url(#f)"/><rect fill="url(#g)" height="35.9" rx="6.39" transform="matrix(.99339281 .11476377 -.11476377 .99339281 3.68 -14.35)" width="35.9" x="108.47" y="6.79"/><path d="m135.84 43.9a6.32 6.32 0 0 0 3-.38l-17.73-22.34a2.94 2.94 0 0 0 -4.11-.48l-9 7.13-.73 6.33a6.39 6.39 0 0 0 5.61 7.08z" fill="#948eff"/><path d="m136 27.35a3.06 3.06 0 0 0 -4.3-.5l-18.2 14.46 22.34 2.59a6.4 6.4 0 0 0 7.08-5.62l.22-2z" fill="#afaaff"/><circle cx="134.39" cy="15.83" fill="#e4e3ff" r="3.39"/><path d="m301.5 97.88-3.93-11.88a1.38 1.38 0 0 0 -2.35-.49l-3.64 4.08-1.88-5.71a5.94 5.94 0 0 0 -7.5-3.77l-20.4 6.74a5.94 5.94 0 0 0 -3.77 7.5l6.74 20.4a5.94 5.94 0 0 0 7.5 3.77l20.4-6.74a5.94 5.94 0 0 0 3.77-7.5l-1.89-5.71 5.35 1.11a1.39 1.39 0 0 0 1.6-1.8z" fill="url(#h)"/><path d="m284 95.81-12.27-2.54a1.38 1.38 0 0 0 -1.59 1.79l3.92 11.94a1.39 1.39 0 0 0 2.35.49l8.33-9.35a1.39 1.39 0 0 0 -.74-2.33z" fill="#fff5d9"/><rect fill="url(#i)" height="38.67" rx="6.88" transform="matrix(.99149036 .1301801 -.1301801 .99149036 7.87 -32.53)" width="38.67" x="233.3" y="24.6"/><rect fill="#b3e1f1" height="3.07" rx="1.42" transform="matrix(.99149036 .1301801 -.1301801 .99149036 6.5 -32.8)" width="28.58" x="239.74" y="31.77"/><rect fill="#b3e1f1" height="3.07" rx="1.42" transform="matrix(.99149036 .1301801 -.1301801 .99149036 7.4 -32.62)" width="28.58" x="238.83" y="38.72"/><rect fill="#b3e1f1" height="3.07" rx="1.05" transform="matrix(.99 .13 -.13 .99 8.13 -31.62)" width="15.6" x="237.97" y="44.82"/></svg>