<?xml version="1.0" encoding="UTF-8"?>
<svg viewBox="0 0 480 480" version="1.1" xmlns="http://www.w3.org/2000/svg" xmlns:xlink="http://www.w3.org/1999/xlink">
    <g id="Page-1" stroke="none" stroke-width="1" fill="none" fill-rule="evenodd">
        <g fill="currentColor" fill-rule="nonzero">
            <path d="M448,105.28 C447.954147,63.5904636 414.169536,29.8058534 372.48,29.76 L358.8576,29.76 L358.8576,16 C358.8576,7.163444 351.694156,0 342.8576,0 C334.021044,0 326.8576,7.163444 326.8576,16 L326.8576,29.76 L121.1552,29.76 L121.1552,16 C121.1552,7.163444 113.991756,0 105.1552,0 C96.318644,0 89.1552,7.163444 89.1552,16 L89.1552,29.76 L75.52,29.76 C33.8304636,29.8058534 0.0458534172,63.5904636 0,105.28 L0,372.48 C0.0458534172,414.169536 33.8304636,447.954147 75.52,448 L246.608,448 C271.873322,468.567992 303.421485,479.86141 336,480 C415.492451,479.911822 479.911822,415.492451 480,336 C479.86141,303.421485 468.567992,271.873322 448,246.608 L448,105.28 Z M75.52,61.76 L89.1424,61.76 L89.1424,75.4144 C89.1424,84.250956 96.305844,91.4144 105.1424,91.4144 C113.978956,91.4144 121.1424,84.250956 121.1424,75.4144 L121.1424,61.76 L326.832,61.76 L326.832,75.4144 C326.832,84.250956 333.995444,91.4144 342.832,91.4144 C351.668556,91.4144 358.832,84.250956 358.832,75.4144 L358.832,61.76 L372.48,61.76 C396.503736,61.7882135 415.971787,81.2562638 416,105.28 L416,118.8608 L32,118.8608 L32,105.28 C32.0282135,81.2562638 51.4962638,61.7882135 75.52,61.76 L75.52,61.76 Z M32,372.48 L32,150.8608 L416,150.8608 L416,216.3776 C358.918579,178.09857 282.7341,185.537672 234.135886,234.135886 C185.537672,282.7341 178.09857,358.918579 216.3776,416 L75.52,416 C51.4969937,415.970027 32.0299726,396.503006 32,372.48 L32,372.48 Z M336,448 C290.700229,448 249.860964,420.712076 232.525492,378.860544 C215.19002,337.009013 224.772265,288.835816 256.804041,256.804041 C288.835816,224.772265 337.009013,215.19002 378.860544,232.525492 C420.712076,249.860964 448,290.700229 448,336 C447.925943,397.825191 397.825191,447.925943 336,448 L336,448 Z" id="Shape"></path>
            <path d="M351.999999,329.376 L351.999999,272 C351.999999,263.163444 344.836556,256 335.999999,256 C327.163444,256 319.999999,263.163444 319.999999,272 L319.999999,336 C319.998442,340.243607 321.685121,344.313513 324.688,347.312 L356.688,379.312 C362.966062,385.375555 372.945356,385.288838 379.117097,379.117097 C385.288838,372.945356 385.375555,362.966062 379.312,356.688 L351.999999,329.376 Z" id="Path"></path>
        </g>
    </g>
</svg>