<?xml version="1.0" encoding="UTF-8"?>
<svg viewBox="0 0 512 512" version="1.1" xmlns="http://www.w3.org/2000/svg" xmlns:xlink="http://www.w3.org/1999/xlink">
    <g id="Page-1" stroke="none" stroke-width="1" fill="none" fill-rule="evenodd">
        <g id="calendar" fill="currentColor" fill-rule="nonzero">
            <path d="M279,364 C279,386.056 296.944,404 319,404 L366,404 C388.056,404 406,386.056 406,364 L406,317 C406,294.944 388.056,277 366,277 L319,277 C296.944,277 279,294.944 279,317 L279,364 Z M319,317 L366,317 L366.025,363.999 C366.025,363.999 366.018,364 366,364 L319,364 L319,317 Z" id="Shape"></path>
            <circle id="Oval" cx="386" cy="210" r="20"></circle>
            <circle id="Oval" cx="299" cy="210" r="20"></circle>
            <path d="M492,352 C503.046,352 512,343.046 512,332 L512,120 C512,75.888 476.112,40 432,40 L406,40 L406,20 C406,8.954 397.046,0 386,0 C374.954,0 366,8.954 366,20 L366,40 L275,40 L275,20 C275,8.954 266.046,0 255,0 C243.954,0 235,8.954 235,20 L235,40 L145,40 L145,20 C145,8.954 136.046,0 125,0 C113.954,0 105,8.954 105,20 L105,40 L80,40 C35.888,40 0,75.888 0,120 L0,432 C0,476.112 35.888,512 80,512 L432,512 C476.112,512 512,476.112 512,432 C512,420.954 503.046,412 492,412 C480.954,412 472,420.954 472,432 C472,454.056 454.056,472 432,472 L80,472 C57.944,472 40,454.056 40,432 L40,120 C40,97.944 57.944,80 80,80 L105,80 L105,100 C105,111.046 113.954,120 125,120 C136.046,120 145,111.046 145,100 L145,80 L235,80 L235,100 C235,111.046 243.954,120 255,120 C266.046,120 275,111.046 275,100 L275,80 L366,80 L366,100 C366,111.046 374.954,120 386,120 C397.046,120 406,111.046 406,100 L406,80 L432,80 C454.056,80 472,97.944 472,120 L472,332 C472,343.046 480.954,352 492,352 Z" id="Path"></path>
            <circle id="Oval" cx="125" cy="384" r="20"></circle>
            <circle id="Oval" cx="125" cy="210" r="20"></circle>
            <circle id="Oval" cx="125" cy="297" r="20"></circle>
            <circle id="Oval" cx="212" cy="297" r="20"></circle>
            <circle id="Oval" cx="212" cy="210" r="20"></circle>
            <circle id="Oval" cx="212" cy="384" r="20"></circle>
        </g>
    </g>
</svg>