<?xml version="1.0" encoding="UTF-8"?>
<svg viewBox="0 0 512 512" version="1.1" xmlns="http://www.w3.org/2000/svg" xmlns:xlink="http://www.w3.org/1999/xlink">
    <g id="Page-1" stroke="none" stroke-width="1" fill="none" fill-rule="evenodd">
        <g id="checked" fill="currentColor" fill-rule="nonzero">
            <path d="M497.36,69.995 C489.828,62.45 477.607,62.437 470.075,69.963 L238.582,300.845 L155.06,210.132 C147.843,202.298 135.641,201.79 127.794,209.006 C119.953,216.223 119.451,228.431 126.668,236.272 L223.794,341.753 C227.351,345.619 232.329,347.864 237.578,347.973 C237.719,347.979 237.855,347.979 237.99,347.979 C243.091,347.979 247.998,345.953 251.613,342.351 L497.322,97.286 C504.873,89.761 504.886,77.54 497.36,69.995 Z" id="Path"></path>
            <path d="M492.703,236.703 C482.045,236.703 473.407,245.341 473.407,256 C473.407,375.883 375.883,473.407 256,473.407 C136.124,473.407 38.593,375.883 38.593,256 C38.593,136.124 136.124,38.593 256,38.593 C266.658,38.593 275.297,29.955 275.297,19.297 C275.297,8.638 266.658,0 256,0 C114.84,0 0,114.84 0,256 C0,397.154 114.84,512 256,512 C397.154,512 512,397.154 512,256 C512,245.342 503.362,236.703 492.703,236.703 Z" id="Path"></path>
        </g>
    </g>
</svg>