<?xml version="1.0" encoding="UTF-8"?>
<svg viewBox="0 0 512 512" version="1.1" xmlns="http://www.w3.org/2000/svg" xmlns:xlink="http://www.w3.org/1999/xlink">
    <title>time-management</title>
    <g id="Page-1" stroke="none" stroke-width="1" fill="none" fill-rule="evenodd">
        <g id="time-management" transform="translate(0.000000, -0.000000)" fill="currentColor" fill-rule="nonzero">
            <path d="M121.462,396.252 C88.8191061,396.252 59.3900295,376.58972 46.8977612,346.431773 C34.4054928,316.273826 41.3102285,281.560252 64.3922401,258.47824 C87.4742518,235.396228 122.187826,228.491493 152.345773,240.983761 C182.50372,253.47603 202.166,282.905106 202.166,315.548 C202.113101,360.097659 166.011659,396.199101 121.462,396.252 L121.462,396.252 Z M121.462,254.852 C96.908533,254.851191 74.7723087,269.64122 65.3755431,292.325434 C55.9787776,315.009647 61.1720316,341.120708 78.5336686,358.482917 C95.8953057,375.845126 122.006195,381.03924 144.690718,371.643222 C167.375242,362.247204 182.166,340.111467 182.166,315.558 C182.135138,282.042955 154.977038,254.879487 121.462,254.842 L121.462,254.852 Z" id="Shape"></path>
            <path d="M219.906,512 L23.024,512 C17.5011525,512 13.024,507.522847 13.024,502 L13.024,481.774 C13.024,438.774 46.824,408.736 95.24,408.736 L147.69,408.736 C196.09,408.736 229.906,438.77 229.906,481.774 L229.906,502 C229.906,507.522847 225.428847,512 219.906,512 Z M33.024,492 L209.906,492 L209.906,481.774 C209.906,445.136 178.658,428.736 147.69,428.736 L95.24,428.736 C64.272,428.736 33.024,445.136 33.024,481.774 L33.024,492 Z" id="Shape"></path>
            <path d="M256,512 C250.477153,512 246,507.522847 246,502 C246,496.477153 250.477153,492 256,492 C386.339201,492 492,386.339201 492,256 C492,125.660799 386.339201,20 256,20 C125.660799,20 20,125.660799 20,256 C20,261.522847 15.5228475,266 10,266 C4.4771525,266 0,261.522847 0,256 C0,114.615104 114.615104,0 256,0 C397.384896,0 512,114.615104 512,256 C512,397.384896 397.384896,512 256,512 L256,512 Z" id="Path"></path>
            <path d="M314.982,300.062001 C313.226242,300.062001 311.501426,299.59979 309.982,298.72 L250.982,264.66 C247.894995,262.869149 245.996374,259.568856 245.999995,256 L245.999995,115.222 C245.999995,109.699153 250.477153,105.222 255.999995,105.222 C261.522847,105.222 265.999995,109.699153 265.999995,115.222 L265.999995,250.222 L319.999995,281.4 C323.92152,283.662264 325.833986,288.276932 324.662345,292.649965 C323.490704,297.022998 319.527268,300.062001 314.999995,300.062001 L314.982,300.062001 Z" id="Path"></path>
            <path d="M256,464.67 C250.477153,464.67 246,460.192847 246,454.67 C246,449.147153 250.477153,444.67 256,444.67 C356.453701,444.696265 439.326021,366.034871 444.533569,265.716237 C449.741118,165.397604 375.458914,78.5783056 275.542414,68.2033378 C175.625915,57.82837 85.0907672,127.533631 69.576,226.782 C69.0529896,230.335648 66.6642548,233.335804 63.3181096,234.641662 C59.9719643,235.94752 56.182507,235.35845 53.3906748,233.098444 C50.5988426,230.838438 49.2335698,227.254722 49.814,223.71 C66.9902797,113.991211 167.087301,36.9446631 277.548067,48.4188337 C388.008832,59.8930044 470.13316,155.867892 464.39186,266.774495 C458.65056,377.681099 367.055109,464.663038 256,464.67 L256,464.67 Z" id="Path"></path>
        </g>
    </g>
</svg>