<?xml version="1.0" encoding="UTF-8"?>
<svg viewBox="0 0 512 512" version="1.1" xmlns="http://www.w3.org/2000/svg" xmlns:xlink="http://www.w3.org/1999/xlink">
    <title>support</title>
    <g id="Page-1" stroke="none" stroke-width="1" fill="none" fill-rule="evenodd">
        <g id="support" fill="currentColor" fill-rule="nonzero">
            <path d="M361.240251,276.3783 L330.250251,245.3883 L412.151251,163.4873 L422.758251,174.0933 C429.626251,180.9613 441.184251,179.6083 446.226251,171.2043 L509.864251,65.1413004 C513.406251,59.2393004 512.475251,51.6843004 507.608251,46.8183004 L465.182251,4.39330038 C460.316251,-0.47369962 452.760251,-1.40269962 446.859251,2.13730038 L340.796251,65.7753004 C332.426251,70.7973004 331.019251,82.3553004 337.907251,89.2433004 L348.514251,99.8493004 L266.612251,181.7503 L235.622251,150.7603 C246.530251,110.0023 235.404251,65.6863004 204.551251,34.8323004 C165.958251,-3.75969962 108.185251,-9.86769962 63.0042505,14.4693004 C58.8302505,16.7183004 55.9652505,20.8073004 55.2762505,25.4983004 C54.5882505,30.1893004 56.1582505,34.9293004 59.5112505,38.2823004 L115.803251,94.5743004 C121.652251,100.4233 121.652251,109.9393 115.803251,115.7863 C109.954251,121.6353 100.439251,121.6363 94.5902505,115.7863 L38.2982505,59.4933004 C34.9452505,56.1403004 30.2042505,54.5693004 25.5142505,55.2583004 C20.8232505,55.9463004 16.7342505,58.8123004 14.4852505,62.9863004 C-9.75974948,107.9983 -3.87374948,165.8093 34.8502505,204.5323 C65.6352505,235.3173 109.928251,246.5373 150.778251,235.6043 L160.552251,245.3773 L22.0012505,383.9313 C-7.32474948,413.2573 -7.34274948,460.6543 22.0012505,489.9993 C51.2442505,519.2413 98.8252505,519.2433 128.069251,489.9993 L266.619251,351.4453 L276.395251,361.2213 C265.487251,401.9793 276.613251,446.2953 307.466251,477.1493 C346.059251,515.7423 403.832251,521.8503 449.013251,497.5133 C453.187251,495.2643 456.052251,491.1753 456.741251,486.4843 C457.429251,481.7933 455.859251,477.0533 452.506251,473.7003 L396.214251,417.4083 C390.365251,411.5593 390.365251,402.0433 396.214251,396.1963 C402.063251,390.3473 411.579251,390.3483 417.427251,396.1963 L473.719251,452.4883 C477.071251,455.8413 481.812251,457.4093 486.503251,456.7233 C491.194251,456.0353 495.283251,453.1693 497.532251,448.9953 C521.777251,403.9833 515.892251,346.1723 477.168251,307.4493 C446.383251,276.6653 402.090251,265.4453 361.240251,276.3783 Z M452.251251,33.8873004 L478.113251,59.7493004 L430.386251,139.2953 L372.704251,81.6153004 L452.251251,33.8873004 Z M369.726251,121.0623 L390.938251,142.2743 L309.037251,224.1753 L287.824251,202.9633 L369.726251,121.0623 Z M106.856251,468.7883 C89.3102505,486.3343 60.7602505,486.3343 43.2132505,468.7883 C25.6082505,451.1833 25.5972505,422.7613 43.2132505,405.1453 L181.763251,266.5913 L245.406251,330.2343 L106.856251,468.7883 Z M478.931251,415.2753 L438.640251,374.9843 C421.096251,357.4413 392.548251,357.4403 375.002251,374.9843 C357.458251,392.5283 357.458251,421.0763 375.002251,438.6223 L415.293251,478.9133 C384.681251,487.2713 351.778251,479.0353 328.680251,455.9383 C304.233251,431.4913 295.932251,394.6363 307.533251,362.0453 C309.475251,356.5893 308.103251,350.5033 304.008251,346.4093 L165.591251,207.9923 C161.505251,203.9063 155.423251,202.5213 149.955251,204.4673 C117.363251,216.0683 80.5092505,207.7663 56.0622505,183.3203 C32.9642505,160.2223 24.7292505,127.3203 33.0872505,96.7083004 L73.3782505,136.9993 C90.9222505,154.5433 119.470251,154.5423 137.016251,136.9993 C154.560251,119.4553 154.560251,90.9073004 137.016251,73.3613004 L96.7252505,33.0703004 C127.336251,24.7103004 160.240251,32.9473004 183.338251,56.0453004 C207.785251,80.4923004 216.086251,117.3473 204.485251,149.9383 C202.543251,155.3943 203.915251,161.4803 208.010251,165.5743 L346.426251,303.9903 C350.521251,308.0853 356.607251,309.4563 362.062251,307.5153 C394.652251,295.9143 431.508251,304.2163 455.955251,328.6623 C479.054251,351.7623 487.289251,384.6633 478.931251,415.2753 Z" id="Shape"></path>
            <path d="M195.030251,319.9713 C189.172251,314.1143 179.676251,314.1143 173.818251,319.9713 L82.1602505,411.6323 C76.3032505,417.4903 76.3032505,426.9863 82.1602505,432.8443 C88.0192505,438.7023 97.5142505,438.7013 103.372251,432.8443 L195.029251,341.1833 C200.886251,335.3253 200.886251,325.8283 195.030251,319.9713 Z" id="Path"></path>
        </g>
    </g>
</svg>