<?xml version="1.0" encoding="UTF-8"?>
<svg viewBox="0 0 473 453" version="1.1" xmlns="http://www.w3.org/2000/svg" xmlns:xlink="http://www.w3.org/1999/xlink">
    <g id="Page-1" stroke="none" stroke-width="1" fill="none" fill-rule="evenodd">
        <g id="contact-form" transform="translate(0.000000, 0.000000)" fill="currentColor" fill-rule="nonzero">
            <path d="M78.7692308,177.230769 L236.307692,177.230769 C241.752615,177.230769 246.153846,172.829538 246.153846,167.384615 C246.153846,161.939692 241.752615,157.538462 236.307692,157.538462 L78.7692308,157.538462 C73.3243077,157.538462 68.9230769,161.939692 68.9230769,167.384615 C68.9230769,172.829538 73.3243077,177.230769 78.7692308,177.230769 Z" id="Path"></path>
            <path d="M78.7692308,246.153846 L157.538462,246.153846 C162.983385,246.153846 167.384615,241.752615 167.384615,236.307692 C167.384615,230.862769 162.983385,226.461538 157.538462,226.461538 L78.7692308,226.461538 C73.3243077,226.461538 68.9230769,230.862769 68.9230769,236.307692 C68.9230769,241.752615 73.3243077,246.153846 78.7692308,246.153846 Z" id="Path"></path>
            <path d="M330.200615,378.702769 L368.708923,359.463385 C371.849846,357.888 373.917538,354.756923 374.134154,351.241846 C374.340923,347.736615 372.667077,344.379077 369.732923,342.429538 L241.122462,257.624615 C238.168615,255.694769 234.436923,255.478154 231.296,257.033846 C228.155077,258.609231 226.087385,261.740308 225.870769,265.255385 L216.635077,418.914462 C216.428308,422.419692 218.092308,425.777231 221.036308,427.716923 C223.960615,429.666462 227.712,429.883077 230.862769,428.317538 L269.380923,409.078154 L288.600615,447.478154 C290.323692,450.924308 293.799385,452.923077 297.422769,452.923077 C298.761846,452.923077 300.120615,452.657231 301.420308,452.066462 L345.560615,432.374154 C348.012308,431.281231 349.912615,429.233231 350.818462,426.702769 C351.724308,424.172308 351.556923,421.385846 350.355692,418.983385 L330.200615,378.702769 Z M302.001231,430.247385 L282.594462,391.473231 C280.861538,388.017231 277.395692,386.028308 273.772308,386.028308 C272.295385,386.028308 270.788923,386.363077 269.380923,387.062154 L237.312,403.081846 L244.499692,283.441231 L344.625231,349.479385 L312.576,365.489231 C310.242462,366.651077 308.460308,368.699077 307.643077,371.180308 C306.816,373.661538 307.012923,376.359385 308.174769,378.702769 L328.132923,418.589538 L302.001231,430.247385 Z" id="Shape"></path>
            <path d="M433.230769,0 L39.3846154,0 C17.664,0 0,17.664 0,39.3846154 L0,137.846154 C0,143.291077 4.40123077,147.692308 9.84615385,147.692308 C15.2910769,147.692308 19.6923077,143.291077 19.6923077,137.846154 L19.6923077,108.307692 L334.769231,108.307692 C340.214154,108.307692 344.615385,103.906462 344.615385,98.4615385 C344.615385,93.0166154 340.214154,88.6153846 334.769231,88.6153846 L19.6923077,88.6153846 L19.6923077,39.3846154 C19.6923077,28.5243077 28.5243077,19.6923077 39.3846154,19.6923077 L433.230769,19.6923077 C444.091077,19.6923077 452.923077,28.5243077 452.923077,39.3846154 L452.923077,88.6153846 L384,88.6153846 C378.555077,88.6153846 374.153846,93.0166154 374.153846,98.4615385 C374.153846,103.906462 378.555077,108.307692 384,108.307692 L452.923077,108.307692 L452.923077,374.153846 C452.923077,385.014154 444.091077,393.846154 433.230769,393.846154 L374.153846,393.846154 C368.708923,393.846154 364.307692,398.247385 364.307692,403.692308 C364.307692,409.137231 368.708923,413.538462 374.153846,413.538462 L433.230769,413.538462 C454.951385,413.538462 472.615385,395.874462 472.615385,374.153846 L472.615385,39.3846154 C472.615385,17.664 454.951385,0 433.230769,0 Z" id="Path"></path>
            <path d="M187.076923,393.846154 L39.3846154,393.846154 C28.5243077,393.846154 19.6923077,385.014154 19.6923077,374.153846 L19.6923077,187.076923 C19.6923077,181.632 15.2910769,177.230769 9.84615385,177.230769 C4.40123077,177.230769 0,181.632 0,187.076923 L0,374.153846 C0,395.874462 17.664,413.538462 39.3846154,413.538462 L187.076923,413.538462 C192.521846,413.538462 196.923077,409.137231 196.923077,403.692308 C196.923077,398.247385 192.521846,393.846154 187.076923,393.846154 Z" id="Path"></path>
        </g>
    </g>
</svg>