<?xml version="1.0" encoding="iso-8859-1"?>
<!-- Generator: Adobe Illustrator 19.0.0, SVG Export Plug-In . SVG Version: 6.00 Build 0)  -->
<svg version="1.1" id="Capa_1" xmlns="http://www.w3.org/2000/svg" xmlns:xlink="http://www.w3.org/1999/xlink" x="0px" y="0px"
	 viewBox="0 0 512 512" style="enable-background:new 0 0 512 512;" xml:space="preserve">
<g>
	<g>
		<path fill="currentColor" d="M497,60h-77.509C412.522,25.808,382.22,0,346,0c-36.22,0-66.522,25.808-73.491,60H15C6.716,60,0,66.716,0,75
			s6.716,15,15,15h257.509c6.968,34.192,37.271,60,73.491,60c36.22,0,66.522-25.808,73.491-60H497c8.284,0,15-6.716,15-15
			S505.284,60,497,60z M346,120c-24.809,0-44.993-20.18-45-44.987c0-0.004,0.001-0.008,0.001-0.013S301,74.991,301,74.987
			C301.007,50.18,321.191,30,346,30c24.813,0,45,20.187,45,45S370.813,120,346,120z"/>
	</g>
</g>
<g>
	<g>
		<path fill="currentColor" d="M497,241H239.491c-6.968-34.192-37.271-60-73.491-60c-36.22,0-66.522,25.808-73.491,60H15c-8.284,0-15,6.716-15,15
			s6.716,15,15,15h77.509c6.968,34.192,37.271,60,73.491,60c36.22,0,66.522-25.808,73.491-60H497c8.284,0,15-6.716,15-15
			S505.284,241,497,241z M166,301c-24.809,0-44.993-20.18-45-44.987c0-0.004,0.001-0.008,0.001-0.013S121,255.991,121,255.987
			C121.007,231.18,141.191,211,166,211c24.813,0,45,20.187,45,45S190.813,301,166,301z"/>
	</g>
</g>
<g>
	<g>
		<path fill="currentColor" d="M497,422h-77.509c-6.968-34.192-37.271-60-73.491-60c-36.22,0-66.522,25.808-73.491,60H15c-8.284,0-15,6.716-15,15
			s6.716,15,15,15h257.509c6.968,34.192,37.271,60,73.491,60c36.22,0,66.522-25.808,73.491-60H497c8.284,0,15-6.716,15-15
			S505.284,422,497,422z M346,482c-24.809,0-44.993-20.18-45-44.987c0-0.004,0.001-0.008,0.001-0.013S301,436.991,301,436.987
			C301.007,412.18,321.191,392,346,392c24.813,0,45,20.187,45,45S370.813,482,346,482z"/>
	</g>
</g>
<g>
</g>
<g>
</g>
<g>
</g>
<g>
</g>
<g>
</g>
<g>
</g>
<g>
</g>
<g>
</g>
<g>
</g>
<g>
</g>
<g>
</g>
<g>
</g>
<g>
</g>
<g>
</g>
<g>
</g>
</svg>
