<?xml version="1.0" encoding="UTF-8"?>
<svg viewBox="0 0 470 470" version="1.1" xmlns="http://www.w3.org/2000/svg" xmlns:xlink="http://www.w3.org/1999/xlink">
    <g id="Page-1" stroke="none" stroke-width="1" fill="none" fill-rule="evenodd">
        <g id="edit-(2)" fill="currentColor" fill-rule="nonzero">
            <path d="M418.133333,51.2 C384,17.0666667 330.666667,17.0666667 296.533333,51.2 L266.666667,81.0666667 L149.333333,200.533333 C145.066667,204.8 142.933333,209.066667 142.933333,213.333333 L128,317.866667 C128,324.266667 130.133333,330.666667 134.4,334.933333 C138.666667,339.2 142.933333,341.333333 149.333333,341.333333 L151.466667,341.333333 L256,326.4 C260.266667,326.4 264.533333,324.266667 268.8,320 L388.266667,202.666667 L418.133333,172.8 C452.266667,138.666667 452.266667,85.3333333 418.133333,51.2 Z M243.2,285.866667 L172.8,294.4 L181.333333,224 L281.6,128 L341.333333,187.733333 L243.2,285.866667 Z M388.266667,142.933333 L373.333333,157.866667 L313.6,98.1333333 L328.533333,83.2 C345.6,66.1333333 371.2,66.1333333 388.266667,83.2 C405.333333,98.1333333 405.333333,125.866667 388.266667,142.933333 Z" id="Shape"></path>
            <path d="M341.333333,469.333333 L128,469.333333 C57.6,469.333333 0,411.733333 0,341.333333 L0,128 C0,57.6 57.6,0 128,0 L234.666667,0 C247.466667,0 256,8.53333333 256,21.3333333 C256,34.1333333 247.466667,42.6666667 234.666667,42.6666667 L128,42.6666667 C81.0666667,42.6666667 42.6666667,81.0666667 42.6666667,128 L42.6666667,341.333333 C42.6666667,388.266667 81.0666667,426.666667 128,426.666667 L341.333333,426.666667 C388.266667,426.666667 426.666667,388.266667 426.666667,341.333333 L426.666667,234.666667 C426.666667,221.866667 435.2,213.333333 448,213.333333 C460.8,213.333333 469.333333,221.866667 469.333333,234.666667 L469.333333,341.333333 C469.333333,411.733333 411.733333,469.333333 341.333333,469.333333 Z" id="Path"></path>
        </g>
    </g>
</svg>