<?xml version="1.0" encoding="UTF-8"?>
<svg viewBox="0 0 512 360" version="1.1" xmlns="http://www.w3.org/2000/svg" xmlns:xlink="http://www.w3.org/1999/xlink">
    <title>email</title>
    <g id="Page-1" stroke="none" stroke-width="1" fill="none" fill-rule="evenodd">
        <g id="email" fill="currentColor" fill-rule="nonzero">
            <path d="M467,0 L45,0 C20.238,0 0,20.149 0,45 L0,315 C0,339.86 20.251,360 45,360 L467,360 C491.762,360 512,339.851 512,315 L512,45 C512,20.143 491.752,0 467,0 Z M460.09,30 C445.541,44.597 274.645,216.05 267.624,223.094 C261.76,228.976 250.243,228.98 244.376,223.094 L51.91,30 L460.09,30 Z M30,309.485 L30,50.515 L159.065,180 L30,309.485 Z M51.91,330 L180.244,201.248 L223.129,244.273 C240.703,261.904 271.304,261.897 288.872,244.273 L331.757,201.248 L460.09,330 L51.91,330 Z M482,309.485 L352.935,180 L482,50.515 L482,309.485 Z" id="Shape"></path>
        </g>
    </g>
</svg>