<?xml version="1.0" encoding="UTF-8"?>
<svg viewBox="0 0 464 400" version="1.1" xmlns="http://www.w3.org/2000/svg" xmlns:xlink="http://www.w3.org/1999/xlink">
    <title>text-editor</title>
    <g id="Page-1" stroke="none" stroke-width="1" fill="none" fill-rule="evenodd">
        <g id="text-editor" fill="currentColor" fill-rule="nonzero">
            <path d="M456,0 L8,0 C3.581722,0 0,3.581722 0,8 L0,392 C0,396.418278 3.581722,400 8,400 L456,400 C460.418278,400 464,396.418278 464,392 L464,8 C464,3.581722 460.418278,0 456,0 Z M16,16 L112,16 L112,384 L16,384 L16,16 Z M448,384 L128,384 L128,16 L448,16 L448,384 Z" id="Shape"></path>
            <path d="M40,64 L88,64 C92.418278,64 96,60.418278 96,56 C96,51.581722 92.418278,48 88,48 L40,48 C35.581722,48 32,51.581722 32,56 C32,60.418278 35.581722,64 40,64 Z" id="Path"></path>
            <path d="M88,96 L40,96 C35.581722,96 32,99.581722 32,104 C32,108.418278 35.581722,112 40,112 L88,112 C92.418278,112 96,108.418278 96,104 C96,99.581722 92.418278,96 88,96 Z" id="Path"></path>
            <path d="M88,144 L40,144 C35.581722,144 32,147.581722 32,152 C32,156.418278 35.581722,160 40,160 L88,160 C92.418278,160 96,156.418278 96,152 C96,147.581722 92.418278,144 88,144 Z" id="Path"></path>
            <path d="M190.88,206.16 L238.88,246.16 C240.319296,247.352649 242.130783,248.003652 244,248.000015 C246.379458,248.003864 248.637148,246.948321 250.16,245.12 C251.520471,243.487339 252.175408,241.38045 251.980295,239.264228 C251.785183,237.148006 250.756057,235.196385 249.12,233.84 L208.48,200 L249.12,166.16 C252.522074,163.332302 252.987698,158.282074 250.16,154.88 C247.332302,151.477926 242.282074,151.012302 238.88,153.84 L190.88,193.84 C189.045837,195.359839 187.984351,197.617971 187.984351,200 C187.984351,202.382029 189.045837,204.640161 190.88,206.16 L190.88,206.16 Z" id="Path"></path>
            <path d="M325.84,245.12 C327.362852,246.948321 329.620542,248.003864 332,248.000015 C333.869217,248.003652 335.680704,247.352649 337.12,246.16 L385.12,206.16 C386.954163,204.640161 388.015649,202.382029 388.015649,200 C388.015649,197.617971 386.954163,195.359839 385.12,193.84 L337.12,153.84 C334.919244,152.0108 331.909795,151.494639 329.225284,152.48595 C326.540772,153.477261 324.589039,155.825439 324.105284,158.64595 C323.621528,161.46646 324.679244,164.3308 326.88,166.16 L367.52,200 L326.88,233.84 C325.243943,235.196385 324.214817,237.148006 324.019705,239.264228 C323.824592,241.38045 324.479529,243.487339 325.84,245.12 Z" id="Path"></path>
            <path d="M269.04,247.44 C269.982301,247.81243 270.986773,248.002465 272,248.000024 C275.278431,248.003174 278.226982,246.005768 279.44,242.96 L311.44,162.96 C313.074763,158.851002 311.068998,154.194763 306.96,152.56 C302.851001,150.925238 298.194763,152.931002 296.56,157.04 L264.56,237.04 C263.772966,239.013048 263.802953,241.218103 264.643347,243.16902 C265.483742,245.119936 267.065539,246.656519 269.04,247.44 L269.04,247.44 Z" id="Path"></path>
        </g>
    </g>
</svg>