<?xml version="1.0" encoding="UTF-8"?>
<svg viewBox="0 0 416 416" version="1.1" xmlns="http://www.w3.org/2000/svg" xmlns:xlink="http://www.w3.org/1999/xlink">
    <title>headset-</title>
    <g id="Page-1" stroke="none" stroke-width="1" fill="none" fill-rule="evenodd">
        <g id="headset-" fill="currentColor" fill-rule="nonzero">
            <path d="M384,320 L336,320 C326.4,320 320,313.6 320,304 L320,224 C320,220.8 321.6,217.6 323.2,214.4 L355.2,166.4 C358.4,161.6 363.2,160 368,160 L384,160 C401.6,160 416,174.4 416,192 L416,288 C416,305.6 401.6,320 384,320 Z M352,288 L384,288 L384,192 L376,192 L352,228.8 L352,288 Z" id="Shape"></path>
            <path d="M80,320 L32,320 C14.4,320 0,305.6 0,288 L0,192 C0,174.4 14.4,160 32,160 L48,160 C52.8,160 57.6,163.2 60.8,166.4 L92.8,214.4 C94.4,217.6 96,220.8 96,224 L96,304 C96,313.6 89.6,320 80,320 Z M32,192 L32,288 L64,288 L64,228.8 L40,192 L32,192 Z" id="Shape"></path>
            <path d="M368,192 C358.4,192 352,185.6 352,176 C352,96 288,32 208,32 C128,32 64,96 64,176 C64,185.6 57.6,192 48,192 C38.4,192 32,185.6 32,176 C32,78.4 110.4,0 208,0 C305.6,0 384,78.4 384,176 C384,185.6 377.6,192 368,192 Z" id="Path"></path>
            <path d="M208,416 C198.4,416 192,409.6 192,400 C192,390.4 198.4,384 208,384 C251.2,384 320,339.2 320,304 C320,294.4 326.4,288 336,288 C345.6,288 352,294.4 352,304 C352,363.2 262.4,416 208,416 Z" id="Path"></path>
            <path d="M256,88 C254.4,88 252.8,88 251.2,86.4 C224,76.8 193.6,76.8 166.4,86.4 C158.4,89.6 148.8,84.8 145.6,76.8 C142.4,68.8 147.2,59.2 155.2,56 C190.4,43.2 227.2,43.2 262.4,56 C270.4,59.2 275.2,68.8 272,76.8 C268.8,83.2 262.4,88 256,88 Z" id="Path"></path>
        </g>
    </g>
</svg>