<?xml version="1.0" encoding="UTF-8"?>
<svg viewBox="0 0 384 384" version="1.1" xmlns="http://www.w3.org/2000/svg" xmlns:xlink="http://www.w3.org/1999/xlink">
    <g id="Page-1" stroke="none" stroke-width="1" fill="none" fill-rule="evenodd">
        <g id="refresh" fill="currentColor">
            <path d="M80.0834133,35.9771733 C111.584853,13.3457067 150.24,-9.47390314e-15 192,-9.47390314e-15 C298.039467,-9.47390314e-15 384,85.9613867 384,192 C384,298.039467 298.039467,384 192,384 C85.9613867,384 0,298.039467 0,192 C0,180.2176 9.55136,170.666667 21.3333333,170.666667 C33.1153067,170.666667 42.6666667,180.2176 42.6666667,192 C42.6666667,274.474667 109.525547,341.333333 192,341.333333 C274.474667,341.333333 341.333333,274.474667 341.333333,192 C341.333333,109.525547 274.474667,42.6666667 192,42.6666667 C163.7824,42.6666667 137.402667,50.4817067 114.891733,64.0834133 L122.75008,64.0834133 C134.532053,64.0834133 144.083413,73.63456 144.083413,85.4167467 C144.083413,97.19872 134.532053,106.75008 122.75008,106.75008 L58.75008,106.75008 C46.9678933,106.75008 37.4167467,97.19872 37.4167467,85.4167467 L37.4167467,21.4167467 C37.4167467,9.63456 46.9678933,0.0834133333 58.75008,0.0834133333 C70.5320533,0.0834133333 80.0834133,9.63456 80.0834133,21.4167467 L80.0834133,35.9771733 Z M192,85.3333333 C203.7824,85.3333333 213.333333,94.8846933 213.333333,106.666667 L213.333333,183.163733 L260.418133,230.248533 C268.7488,238.5792 268.7488,252.087467 260.418133,260.418133 C252.087467,268.7488 238.5792,268.7488 230.248533,260.418133 L176.9152,207.0848 C172.9152,203.0848 170.666667,197.6576 170.666667,192 L170.666667,106.666667 C170.666667,94.8846933 180.2176,85.3333333 192,85.3333333 L192,85.3333333 Z" id="Shape"></path>
        </g>
    </g>
</svg>