<?xml version="1.0" encoding="UTF-8"?>
<svg viewBox="0 0 459 374" version="1.1" xmlns="http://www.w3.org/2000/svg" xmlns:xlink="http://www.w3.org/1999/xlink">
    <g id="Page-1" stroke="none" stroke-width="1" fill="none" fill-rule="evenodd">
        <g id="id-card-(2)" fill="currentColor" fill-rule="nonzero">
            <path d="M208,298.666667 C199.163444,298.666667 192,291.503223 192,282.666667 L192,261.333333 C192,234.823665 170.509668,213.333333 144,213.333333 C117.490332,213.333333 96,234.823665 96,261.333333 L96,282.666667 C96,291.503223 88.836556,298.666667 80,298.666667 C71.163444,298.666667 64,291.503223 64,282.666667 L64,261.333333 C64,217.150553 99.81722,181.333333 144,181.333333 C188.18278,181.333333 224,217.150553 224,261.333333 L224,282.666667 C224,291.503223 216.836556,298.666667 208,298.666667 Z" id="Path"></path>
            <path d="M144,213.333333 C105.708257,213.333333 74.6666667,182.291743 74.6666667,144 C74.6666667,105.708257 105.708257,74.6666667 144,74.6666667 C182.291743,74.6666667 213.333333,105.708257 213.333333,144 C213.286316,182.27225 182.27225,213.286316 144,213.333333 Z M144,106.666667 C123.381369,106.666667 106.666667,123.381369 106.666667,144 C106.666667,164.618631 123.381369,181.333333 144,181.333333 C164.618631,181.333333 181.333333,164.618631 181.333333,144 C181.309821,123.391116 164.608884,106.690179 144,106.666667 L144,106.666667 Z" id="Shape"></path>
            <path d="M378.666667,373.333333 L80,373.333333 C35.8367161,373.286301 0.0470322912,337.496617 0,293.333333 L0,80 C0.0470322912,35.8367161 35.8367161,0.0470322912 80,0 L378.666667,0 C422.829951,0.0470322912 458.619634,35.8367161 458.666667,80 L458.666667,293.333333 C458.619634,337.496617 422.829951,373.286301 378.666667,373.333333 L378.666667,373.333333 Z M80,32 C53.5000821,32.0235241 32.0235241,53.5000821 32,80 L32,293.333333 C32.0235241,319.833251 53.5000821,341.309809 80,341.333333 L378.666667,341.333333 C405.166585,341.309809 426.643143,319.833251 426.666667,293.333333 L426.666667,80 C426.643143,53.5000821 405.166585,32.0235241 378.666667,32 L80,32 Z" id="Shape"></path>
            <path d="M336,245.333333 L261.333333,245.333333 C252.496777,245.333333 245.333333,238.169889 245.333333,229.333333 C245.333333,220.496777 252.496777,213.333333 261.333333,213.333333 L336,213.333333 C344.836556,213.333333 352,220.496777 352,229.333333 C352,238.169889 344.836556,245.333333 336,245.333333 L336,245.333333 Z" id="Path"></path>
            <path d="M378.666667,181.333333 L261.333333,181.333333 C252.496777,181.333333 245.333333,174.169889 245.333333,165.333333 C245.333333,156.496777 252.496777,149.333333 261.333333,149.333333 L378.666667,149.333333 C387.503223,149.333333 394.666667,156.496777 394.666667,165.333333 C394.666667,174.169889 387.503223,181.333333 378.666667,181.333333 Z" id="Path"></path>
        </g>
    </g>
</svg>