<?xml version="1.0" encoding="UTF-8"?>
<svg viewBox="0 0 512 465" version="1.1" xmlns="http://www.w3.org/2000/svg" xmlns:xlink="http://www.w3.org/1999/xlink">
    <g id="Page-1" stroke="none" stroke-width="1" fill="none" fill-rule="evenodd">
        <g id="info-(2)" fill="currentColor" fill-rule="nonzero">
            <path d="M239.911,109.088 C239.911,95.281 251.104,84.088 264.911,84.088 C278.718,84.088 289.911,95.281 289.911,109.088 C289.911,122.895 278.718,134.088 264.911,134.088 C251.104,134.088 239.911,122.896 239.911,109.088 Z M278.529,293.083 C274.506,295.046 271.305,293.43 269.757,292.29 C268.293,291.213 265.981,288.856 266.309,284.86 L282.185,221.713 C282.339,221.099 282.464,220.478 282.56,219.852 C285.288,201.964 277.926,184.192 263.348,173.471 C248.766,162.747 229.602,161.017 213.338,168.954 C199.782,175.568 196.97,176.938 196.96,176.943 L214.477,212.904 C214.477,212.904 217.28,211.539 230.879,204.903 C234.903,202.941 238.102,204.558 239.65,205.696 C241.114,206.773 243.426,209.131 243.099,213.127 L227.223,276.274 C227.069,276.888 226.944,277.509 226.848,278.134 C224.119,296.021 231.481,313.793 246.058,324.514 C254.566,330.771 264.633,333.967 274.776,333.967 C282.016,333.967 289.295,332.339 296.07,329.033 L309.658,322.402 L292.117,286.453 L278.529,293.083 Z M512,212 C512,248.195 505.077,280.709 491.422,308.641 C478.414,335.25 459.293,357.791 434.59,375.64 C390.803,407.277 329.047,424 256,424 C235.558,424 215.815,422.687 197.155,420.091 C154.825,462.553 102.766,465.001 91.419,465.001 C91.309,465.001 91.203,465.001 91.101,465.001 L90.996,465.001 L55.041,464.948 L74.024,434.428 C74.123,434.266 85.132,416.127 93.615,386.196 C32.285,350.171 0,290.284 0,212 C0,175.805 6.923,143.291 20.578,115.359 C33.586,88.75 52.708,66.208 77.41,48.36 C121.197,16.722 182.953,0 256,0 C329.047,0 390.803,16.723 434.59,48.36 C459.292,66.208 478.413,88.75 491.422,115.359 C505.077,143.29 512,175.805 512,212 Z M472,212 C472,154.097 451.532,109.949 411.164,80.783 C374.238,54.102 320.583,40 256,40 C191.417,40 137.762,54.103 100.836,80.783 C60.468,109.949 40,154.097 40,212 C40,280.877 68.818,330.016 125.654,358.051 L139.727,364.992 L136.333,380.312 C133.04,395.179 128.958,408.227 124.929,419.098 C140.446,413.869 158.727,404.049 174.561,385.659 L181.93,377.099 L193.066,378.99 C212.637,382.314 233.811,383.999 256.001,383.999 C320.584,383.999 374.239,369.896 411.165,343.216 C451.532,314.05 472,269.902 472,212 Z" id="Shape"></path>
        </g>
    </g>
</svg>