<?xml version="1.0" encoding="UTF-8"?>
<svg viewBox="0 0 427 427" version="1.1" xmlns="http://www.w3.org/2000/svg" xmlns:xlink="http://www.w3.org/1999/xlink">
    <g id="Page-1" stroke="none" stroke-width="1" fill="none" fill-rule="evenodd">
        <g id="align-text" fill="currentColor" fill-rule="nonzero">
            <path d="M234.666667,224 L106.666667,224 C93.8666667,224 85.3333333,232.533333 85.3333333,245.333333 C85.3333333,258.133333 93.8666667,266.666667 106.666667,266.666667 L234.666667,266.666667 C247.466667,266.666667 256,258.133333 256,245.333333 C256,232.533333 247.466667,224 234.666667,224 Z M320,149.333333 L106.666667,149.333333 C93.8666667,149.333333 85.3333333,157.866667 85.3333333,170.666667 C85.3333333,183.466667 93.8666667,192 106.666667,192 L320,192 C332.8,192 341.333333,183.466667 341.333333,170.666667 C341.333333,157.866667 332.8,149.333333 320,149.333333 Z M373.333333,0 L53.3333333,0 C23.4666667,0 0,23.4666667 0,53.3333333 L0,373.333333 C0,403.2 23.4666667,426.666667 53.3333333,426.666667 L373.333333,426.666667 C403.2,426.666667 426.666667,403.2 426.666667,373.333333 L426.666667,53.3333333 C426.666667,23.4666667 403.2,0 373.333333,0 Z M384,373.333333 C384,379.733333 379.733333,384 373.333333,384 L53.3333333,384 C46.9333333,384 42.6666667,379.733333 42.6666667,373.333333 L42.6666667,53.3333333 C42.6666667,46.9333333 46.9333333,42.6666667 53.3333333,42.6666667 L373.333333,42.6666667 C379.733333,42.6666667 384,46.9333333 384,53.3333333 L384,373.333333 Z" id="Shape"></path>
        </g>
    </g>
</svg>