<?xml version="1.0" encoding="UTF-8"?>
<svg viewBox="0 0 427 342" version="1.1" xmlns="http://www.w3.org/2000/svg" xmlns:xlink="http://www.w3.org/1999/xlink">
    <g id="Page-1" stroke="none" stroke-width="1" fill="none" fill-rule="evenodd">
        <g id="sign-out" fill="currentColor" fill-rule="nonzero">
            <path d="M426.513074,171.458347 C426.44762,173.761602 426.004241,176.038461 425.20064,178.197973 C425.13024,178.38144 425.13408,178.576853 425.05984,178.75904 L425.041707,178.83328 C424.034003,181.157867 422.613521,183.280675 420.849067,185.09888 C420.665387,185.296853 420.609493,185.557333 420.41664,185.749973 L356.41664,249.749973 C348.076171,258.019398 334.619992,257.990692 326.314881,249.685758 C318.00977,241.380823 317.980779,227.924644 326.250027,219.584 L353.838507,191.99552 L192.020907,191.979733 C180.243706,191.991493 170.699333,201.535866 170.687573,213.313067 L170.66624,234.689067 C170.649063,246.460566 161.104417,255.995667 149.332907,256.001067 L149.311573,256.001067 C143.652628,255.998639 138.226781,253.746636 134.229305,249.741158 C130.23183,245.735679 127.990683,240.305338 127.999547,234.6464 L128.020907,213.291733 C128.068878,177.968854 156.698013,149.349262 192.020907,149.313067 L353.83424,149.3344 L326.25024,121.7504 C317.967777,113.412032 317.990425,99.9451106 326.300888,91.6346478 C334.611351,83.324185 348.078272,83.3015367 356.41664,91.584 L420.41664,155.584 C422.192713,157.424034 423.619178,159.571864 424.626347,161.92256 C424.911984,162.605559 425.160594,163.303461 425.371093,164.013227 C425.94235,165.728222 426.289406,167.509897 426.403627,169.31392 C426.477131,170.026358 426.513074,170.742127 426.513074,171.458347 L426.513074,171.458347 Z M64,341.333333 L234.666667,341.333333 C269.996904,341.294769 298.628102,312.663571 298.666667,277.333333 L298.666667,234.666667 C298.666667,222.884592 289.115408,213.333333 277.333333,213.333333 C265.551259,213.333333 256,222.884592 256,234.666667 L256,277.333333 C255.98824,289.110534 246.443867,298.654907 234.666667,298.666667 L64,298.666667 C52.2227997,298.654907 42.6784262,289.110534 42.6666667,277.333333 L42.6666667,64 C42.6784262,52.2227997 52.2227997,42.6784262 64,42.6666667 L234.666667,42.6666667 C246.443867,42.6784262 255.98824,52.2227997 256,64 L256,106.666667 C256,118.448741 265.551259,128 277.333333,128 C289.115408,128 298.666667,118.448741 298.666667,106.666667 L298.666667,64 C298.628102,28.6697623 269.996904,0.0385645153 234.666667,2.84217094e-14 L64,2.84217094e-14 C28.6697623,0.0385645153 0.0385645153,28.6697623 0,64 L0,277.333333 C0.0385645153,312.663571 28.6697623,341.294769 64,341.333333 L64,341.333333 Z" id="Shape"></path>
        </g>
    </g>
</svg>