<?xml version="1.0" encoding="UTF-8"?>
<svg viewBox="0 0 448 427" version="1.1" xmlns="http://www.w3.org/2000/svg" xmlns:xlink="http://www.w3.org/1999/xlink">
    <g id="Page-1" stroke="none" stroke-width="1" fill="none" fill-rule="evenodd">
        <g id="notes" fill="currentColor" fill-rule="nonzero">
            <path d="M78.91872,141.866362 L273.44208,141.866362 C277.770478,141.783791 281.235976,138.251273 281.235976,133.922087 C281.235976,129.592902 277.769924,126.060628 273.44152,125.978362 L78.91872,125.978362 C74.5903193,126.06078 71.124544,129.593177 71.124544,133.922362 C71.124544,138.251547 74.5903193,141.783944 78.91872,141.866362 L78.91872,141.866362 Z" id="Path"></path>
            <path d="M78.91872,202.383802 L198.65824,202.383802 C202.984126,202.297914 206.445881,198.766466 206.445881,194.439728 C206.445881,190.112989 202.983572,186.581785 198.65768,186.496202 L78.91872,186.496202 C74.5928308,186.581937 71.1307992,190.113263 71.1307992,194.440002 C71.1307992,198.766741 74.5928308,202.298067 78.91872,202.383802 L78.91872,202.383802 Z" id="Path"></path>
            <path d="M201.25704,247.013642 L78.91872,247.013642 C74.5313699,247.013642 70.97472,250.570292 70.97472,254.957642 C70.97472,259.344992 74.5313699,262.901642 78.91872,262.901642 L201.25704,262.901642 C205.587098,262.821515 209.055398,259.288442 209.055398,254.957642 C209.055398,250.626843 205.587098,247.093769 201.25704,247.013642 L201.25704,247.013642 Z" id="Path"></path>
            <path d="M183.09656,307.531162 L78.91872,307.531162 C74.5886642,307.61142 71.1206016,311.144598 71.1206016,315.475398 C71.1206016,319.806197 74.5891393,323.339166 78.9192,323.419162 L183.09656,323.419162 C187.426618,323.339035 190.894918,319.805962 190.894918,315.475162 C190.894918,311.144363 187.426618,307.611289 183.09656,307.531162 Z" id="Path"></path>
            <path d="M447.62456,35.0510821 C446.54561,28.9721016 443.078776,23.5777241 437.99728,20.0710821 L415.01936,4.13292214 C404.457052,-3.1640075 389.982668,-0.545227094 382.64664,9.98996214 L352.19784,53.8823621 C351.364023,36.8117004 337.303914,23.3861069 320.21296,23.3409221 L32.14776,23.3409221 C14.3999238,23.3615142 0.0182514232,37.7450834 0,55.4929221 L0,393.904922 C0.0182514232,411.652761 14.3999238,426.03633 32.14776,426.056922 L320.21296,426.056922 C337.960796,426.03633 352.342469,411.652761 352.36072,393.904922 L352.36072,184.313562 C373.58472,153.707082 423.116,82.3295621 443.83904,52.4474021 C447.373292,47.3867903 448.736386,41.1227021 447.62456,35.0510821 L447.62456,35.0510821 Z M336.47304,393.904922 C336.464184,402.882279 329.189835,410.158382 320.21248,410.168922 L32.14776,410.168922 C23.170418,410.158382 15.8960919,402.882266 15.88776,393.904922 L15.88776,55.4925221 C15.8960919,46.5151778 23.170418,39.2390623 32.14776,39.2285221 L320.21296,39.2285221 C329.190315,39.2390622 336.464664,46.5151649 336.47304,55.4925221 L336.47304,76.5506821 L240.41768,215.017562 C240.02696,215.876202 239.62728,216.682042 239.25384,217.550362 L218.63416,297.019962 C217.864671,300.199212 219.110031,303.526463 221.777898,305.419141 C224.445764,307.311819 227.997629,307.387886 230.74408,305.611162 L299.38224,259.626522 C300.231002,258.914902 301.018466,258.133219 301.73632,257.289722 L336.47304,207.216282 L336.47304,393.904922 Z M251.7696,232.564042 L280.98344,252.831882 L239.26176,280.782762 L251.7696,232.564042 Z M293.08448,241.889562 L257.99648,217.546042 L357.53848,74.0513221 L392.6312,98.3962821 L293.08448,241.889562 Z M430.79064,43.3866821 L401.68976,85.3382021 L366.59704,60.9935621 L395.69504,19.0469221 C398.02084,15.7070499 402.609331,14.8763846 405.9584,17.1889221 L428.93656,33.1233221 C432.267774,35.4550556 433.095467,40.0367956 430.79064,43.3866821 L430.79064,43.3866821 Z" id="Shape"></path>
        </g>
    </g>
</svg>