<?xml version="1.0" encoding="UTF-8"?>
<svg viewBox="0 0 448 448" version="1.1" xmlns="http://www.w3.org/2000/svg" xmlns:xlink="http://www.w3.org/1999/xlink">
    <title>color-palette</title>
    <g id="Page-1" stroke="none" stroke-width="1" fill="none" fill-rule="evenodd">
        <g id="color-palette" fill="currentColor" fill-rule="nonzero">
            <path d="M224,0 C100.4784,0 2.84217094e-14,100.47856 2.84217094e-14,224.0008 C2.84217094e-14,347.52304 100.4784,448.0008 224,448.0008 C232.83619,448.0008 239.999117,440.83699 240,432.0008 L240,304.0008 L421.7824,304.0008 C428.707595,304.004035 434.848973,299.5521 437,292.96944 C444.248,270.7112 447.9552,247.43984 448,224.032 C448,224.021333 448,224.010667 448,224 C448,100.47776 347.5232,0 224,0 L224,0 Z M224,32.0008 C330.2288,32.0008 416,117.77264 416,224.0008 C416,240.29776 412.4656,256.2648 408.344,272.0008 L224,272.0008 C215.16381,272.001683 208.000883,279.16461 208,288.0008 L208,412.78208 C109.6992,404.27744 32,324.54944 32,224.0008 C32,117.77264 117.7728,32.0008 224,32.0008 Z" id="path1334"></path>
            <path d="M315.7136,129.15024 C311.470212,136.500428 304.480706,141.863834 296.282767,144.060513 C288.084827,146.257192 279.350022,145.107195 272,140.86352 C264.650029,136.619918 259.286895,129.630317 257.090461,121.432396 C254.894027,113.234476 256.044218,104.499787 260.288,97.14992 C269.124702,81.845222 288.694946,76.6015139 304,85.4376 C311.349982,89.6809313 316.713268,96.6702387 318.909995,104.867951 C321.106722,113.065663 319.956944,121.800265 315.7136,129.15024 L315.7136,129.15024 Z" id="path1336"></path>
            <path d="M140.8624,176.00144 C136.619012,183.351628 129.629506,188.715034 121.431567,190.911713 C113.233627,193.108392 104.498822,191.958395 97.1488,187.71472 C89.7988292,183.471118 84.4356951,176.481517 82.2392608,168.283596 C80.0428265,160.085676 81.1930184,151.350987 85.4368,144.00112 C94.2735568,128.69648 113.843788,123.452847 129.1488,132.28896 C144.454251,141.125236 149.698598,160.695944 140.8624,176.00144 L140.8624,176.00144 Z" id="path1338"></path>
            <path d="M355.9216,221.78272 C347.723599,223.979829 338.98856,222.83015 331.638256,218.586622 C324.287951,214.343093 318.924536,207.353355 316.728,199.1552 C314.531322,190.957202 315.681367,182.22234 319.925122,174.872299 C324.168878,167.522258 331.158694,162.159154 339.3568,159.96288 C347.554601,157.766261 356.289247,158.9162 363.639186,163.159721 C370.989126,167.403242 376.35228,174.392732 378.5488,182.59056 C380.745484,190.788318 379.595635,199.522948 375.352206,206.872912 C371.108778,214.222877 364.119375,219.586099 355.9216,221.78272 L355.9216,221.78272 Z" id="path1340"></path>
            <path d="M199.1536,131.27312 C190.955821,133.469745 182.221194,132.319827 174.871258,128.076339 C167.521323,123.83285 162.158154,116.843398 159.9616,108.6456 C157.764916,100.447842 158.914765,91.7132123 163.158194,84.3632479 C167.401622,77.0132835 174.391025,71.6500613 182.5888,69.45344 C190.786601,67.2568205 199.521247,68.40676 206.871186,72.6502811 C214.221126,76.8938021 219.58428,83.883292 221.7808,92.08112 C223.977436,100.278856 222.827562,109.013444 218.584138,116.363372 C214.340714,123.713299 207.351339,129.076497 199.1536,131.27312 L199.1536,131.27312 Z" id="path1342"></path>
        </g>
    </g>
</svg>