<?xml version="1.0" encoding="UTF-8"?>
<svg viewBox="0 0 427 427" version="1.1" xmlns="http://www.w3.org/2000/svg" xmlns:xlink="http://www.w3.org/1999/xlink">
    <g id="Page-1" stroke="none" stroke-width="1" fill="none" fill-rule="evenodd">
        <g id="add" fill="currentColor" fill-rule="nonzero">
            <path d="M320,0 L106.666667,0 C47.7855328,0.0705304818 0.0705304818,47.7855328 0,106.666667 L0,320 C0.0705304818,378.881134 47.7855328,426.596136 106.666667,426.666667 L320,426.666667 C378.881134,426.596136 426.596136,378.881134 426.666667,320 L426.666667,106.666667 C426.596136,47.7855328 378.881134,0.0705304818 320,0 L320,0 Z M384,320 C384,355.346224 355.346224,384 320,384 L106.666667,384 C71.3204427,384 42.6666667,355.346224 42.6666667,320 L42.6666667,106.666667 C42.6666667,71.3204427 71.3204427,42.6666667 106.666667,42.6666667 L320,42.6666667 C355.346224,42.6666667 384,71.3204427 384,106.666667 L384,320 Z" id="Shape"></path>
            <path d="M298.666667,192 L234.666667,192 L234.666667,128 C234.666667,116.217925 225.115408,106.666667 213.333333,106.666667 C201.551259,106.666667 192,116.217925 192,128 L192,192 L128,192 C116.217925,192 106.666667,201.551259 106.666667,213.333333 C106.666667,225.115408 116.217925,234.666667 128,234.666667 L192,234.666667 L192,298.666667 C192,310.448741 201.551259,320 213.333333,320 C225.115408,320 234.666667,310.448741 234.666667,298.666667 L234.666667,234.666667 L298.666667,234.666667 C310.448741,234.666667 320,225.115408 320,213.333333 C320,201.551259 310.448741,192 298.666667,192 Z" id="Path"></path>
        </g>
    </g>
</svg>