<?xml version="1.0" encoding="UTF-8"?>
<svg viewBox="0 0 18 19" version="1.1" xmlns="http://www.w3.org/2000/svg" xmlns:xlink="http://www.w3.org/1999/xlink">
    <title>prioritize</title>
    <g id="Page-1" stroke="none" stroke-width="1" fill-rule="evenodd">
        <g id="prioritize" transform="translate(0.500000, 0.500000)" fill="currentColor">
            <path d="M8.2227,0.08397 C8.3906,-0.02799 8.6094,-0.02799 8.7774,0.08397 L11.7774,2.08397 C12.0071,2.23715 12.0692,2.54759 11.916,2.77735 C11.7628,3.00711 11.4524,3.0692 11.2226,2.91603 L9,1.43426 L9,6 L14.5,6 C15.8807,6 17,7.11929 17,8.5 C17,9.8807 15.8807,11 14.5,11 L9,11 L9,13 L14.5,13 C15.8807,13 17,14.1193 17,15.5 C17,16.8807 15.8807,18 14.5,18 L2.5,18 C1.11929,18 0,16.8807 0,15.5 C0,14.1193 1.11929,13 2.5,13 L8,13 L8,11 L2.5,11 C1.11929,11 0,9.8807 0,8.5 C0,7.11929 1.11929,6 2.5,6 L8,6 L8,1.43426 L5.77735,2.91603 C5.54759,3.0692 5.23715,3.00711 5.08397,2.77735 C4.9308,2.54759 4.99289,2.23715 5.22265,2.08397 L8.2227,0.08397 Z M8,7 L2.5,7 C1.67157,7 1,7.6716 1,8.5 C1,9.3284 1.67157,10 2.5,10 L8,10 L8,7 Z M9,10 L14.5,10 C15.3284,10 16,9.3284 16,8.5 C16,7.6716 15.3284,7 14.5,7 L9,7 L9,10 Z M2.5,14 C1.67157,14 1,14.6716 1,15.5 C1,16.3284 1.67157,17 2.5,17 L14.5,17 C15.3284,17 16,16.3284 16,15.5 C16,14.6716 15.3284,14 14.5,14 L2.5,14 Z" id="Shape"></path>
        </g>
    </g>
</svg>