<?xml version="1.0" encoding="UTF-8"?>
<svg viewBox="0 0 480 416" version="1.1" xmlns="http://www.w3.org/2000/svg" xmlns:xlink="http://www.w3.org/1999/xlink">
    <g id="Page-1" stroke="none" stroke-width="1" fill="none" fill-rule="evenodd">
        <g id="reply" fill="currentColor" fill-rule="nonzero">
            <path d="M464,415.997364 C458.048,415.997364 452.436,412.668251 449.688,407.152251 C420.064,347.904251 392.016,291.824251 240,288.184251 L240,399.996251 C240,406.356251 236.236,412.104251 230.42,414.652251 C224.604,417.200251 217.812,416.072251 213.14,411.744251 L5.14,219.744251 C1.86,216.732251 0,212.464251 0,207.996251 C0,203.528251 1.86,199.260251 5.14,196.244251 L213.14,4.24425095 C217.812,-0.0837490517 224.624,-1.19174905 230.42,1.33625095 C236.236,3.88825095 240,9.63625095 240,15.9962509 L240,128.184251 C461.608,133.684251 480,254.604251 480,399.996251 C480,407.416251 474.892,413.856251 467.672,415.576251 C466.452,415.856251 465.22,415.997364 464,415.997364 Z M39.592,207.996251 L208,363.448251 L208,271.996251 C208,263.152251 215.156,255.996251 224,255.996251 C356.672,255.996251 413.156,293.028251 446.296,337.544251 C438.812,228.356251 400.752,159.996251 224,159.996251 C215.156,159.996251 208,152.840251 208,143.996251 L208,52.5442509 L39.592,207.996251 Z" id="Reply"></path>
        </g>
    </g>
</svg>