<?xml version="1.0" encoding="UTF-8"?>
<svg viewBox="0 0 475 512" version="1.1" xmlns="http://www.w3.org/2000/svg" xmlns:xlink="http://www.w3.org/1999/xlink">
    <g id="Page-1" stroke="none" stroke-width="1" fill="none" fill-rule="evenodd">
        <g id="shield" transform="translate(0.000000, -0.000000)" fill="currentColor" fill-rule="nonzero">
            <path d="M433.204,511.999 L358.204,511.999 C345.798,511.999 335.704,501.905 335.704,489.499 L335.704,424.58 C323.744,434.535 311.057,443.324 300.006,450.352 C272.239,468.012 240.18,483.566 218.33,489.976 C215.959,490.673 213.449,490.673 211.076,489.976 C189.228,483.566 157.169,468.012 129.402,450.352 C105.285,435.012 73.363,411.285 58.25,385.354 C15.174,311.451 0,119.826 0,84.33 C0,78.836 2.657,73.925 6.935,71.514 C46.058,49.458 112.811,26.076 205.339,2.021 C208.092,1.305 212.626,0 214.705,0 C216.784,0 221.317,1.305 224.07,2.021 C299.62,21.663 358.419,41.026 398.833,59.572 C402.598,61.3 404.249,65.752 402.521,69.516 C400.793,73.28 396.341,74.93 392.577,73.204 C352.96,55.024 294.996,35.959 220.296,16.537 C217.84,15.899 215.951,15.407 214.705,15.073 C213.457,15.408 211.568,15.899 209.113,16.537 C96.438,45.832 41.407,69.431 15.006,84.185 C15.002,84.23 15,84.279 15,84.331 C15,117.758 30.309,307.63 71.209,377.803 C81.817,396.004 105.344,417.275 137.452,437.697 C163.876,454.503 194.101,469.252 214.704,475.409 C235.308,469.251 265.534,454.502 291.956,437.697 C324.064,417.275 347.59,396.005 358.199,377.803 C358.353,377.537 358.508,377.27 358.662,377 L358.204,377 C352.889,377 347.998,375.147 344.143,372.054 C323.324,405.073 255.788,445.194 217.262,458.795 C216.666,459.012 216.034,459.154 215.379,459.214 C215.377,459.214 215.373,459.215 215.367,459.215 C215.138,459.236 214.911,459.242 214.677,459.244 C214.672,459.244 214.668,459.244 214.663,459.244 C213.717,459.239 212.812,459.06 211.98,458.736 C182.545,448.309 134.994,422.194 104.575,394.182 C101.527,391.375 101.332,386.631 104.137,383.584 C106.945,380.535 111.688,380.341 114.735,383.146 C139.621,406.062 178.847,428.972 207.199,440.801 L207.201,241.998 L62.024,241.998 C70.5,290.463 82.17,337.03 97.128,362.694 C99.214,366.272 98.004,370.864 94.425,372.95 C90.847,375.036 86.255,373.827 84.169,370.247 C47.151,306.736 32.329,139.32 30.386,97.963 C30.246,94.98 31.89,92.197 34.571,90.88 C73.142,71.926 133.056,51.818 212.656,31.115 C213.25,30.947 213.874,30.85 214.518,30.834 L214.535,30.834 L214.536,30.834 C214.647,30.832 214.762,30.832 214.873,30.834 L214.889,30.834 C215.535,30.85 216.161,30.947 216.757,31.116 C296.356,51.819 356.268,71.926 394.839,90.88 C397.52,92.197 399.163,94.981 399.024,97.964 C398.694,104.966 398.167,113.159 397.478,121.999 L412.422,121.999 C413.875,103.149 414.409,90.327 414.409,84.33 C414.409,84.255 414.404,84.185 414.397,84.126 C411.339,81.922 410.363,77.724 412.257,74.363 C414.291,70.756 418.862,69.479 422.474,71.513 C426.751,73.924 429.409,78.835 429.409,84.329 C429.409,90.486 428.883,103.379 427.457,122.102 C431.004,122.698 433.705,125.782 433.705,129.498 C433.705,133.641 430.348,136.998 426.205,136.998 L358.205,136.998 C354.069,136.998 350.705,140.362 350.705,144.498 L350.705,219.498 C350.705,223.634 354.069,226.998 358.205,226.998 L433.205,226.998 C437.341,226.998 440.705,223.634 440.705,219.498 L440.705,165.927 L403.54,203.093 C400.609,206.022 395.861,206.02 392.933,203.093 L367.902,178.062 C364.973,175.132 364.973,170.384 367.902,167.455 C370.831,164.528 375.579,164.526 378.509,167.455 L398.237,187.184 L461.224,124.196 C464.154,121.268 468.902,121.268 471.831,124.196 C474.76,127.126 474.76,131.874 471.831,134.803 L455.705,150.928 L455.705,219.499 C455.705,231.905 445.611,241.999 433.205,241.999 L413.017,241.999 C412.166,247.084 411.292,252.095 410.4,256.999 L426.205,256.999 C430.348,256.999 433.705,260.356 433.705,264.499 C433.705,268.642 430.348,271.999 426.205,271.999 L358.205,271.999 C354.069,271.999 350.705,275.363 350.705,279.499 C350.705,279.499 350.744,355.377 350.818,355.8 C350.845,355.923 350.871,356.047 350.893,356.172 C351.655,359.505 354.644,361.999 358.205,361.999 L433.205,361.999 C437.341,361.999 440.705,358.635 440.705,354.499 L440.705,300.928 L403.54,338.094 C400.609,341.022 395.861,341.022 392.933,338.094 L367.902,313.063 C364.973,310.133 364.973,305.385 367.902,302.456 C370.831,299.528 375.579,299.527 378.509,302.456 L398.237,322.185 L461.224,259.197 C464.154,256.269 468.902,256.269 471.831,259.197 C474.76,262.127 474.76,266.875 471.831,269.804 L455.705,285.929 L455.705,354.5 C455.705,366.906 445.611,377 433.205,377 L375.673,377 C374.189,379.954 372.677,382.752 371.159,385.355 C369.858,387.587 368.431,389.804 366.898,392 L426.205,392 C430.348,392 433.705,395.357 433.705,399.5 C433.705,403.643 430.348,407 426.205,407 L358.205,407 C354.069,407 350.705,410.364 350.705,414.5 L350.705,489.5 C350.705,493.636 354.069,497 358.205,497 L433.205,497 C437.341,497 440.705,493.636 440.705,489.5 L440.705,435.929 L403.54,473.095 C400.609,476.024 395.861,476.022 392.933,473.095 L367.902,448.064 C364.973,445.134 364.973,440.386 367.902,437.457 C370.831,434.529 375.579,434.528 378.509,437.457 L398.237,457.186 L461.224,394.198 C464.154,391.27 468.902,391.27 471.831,394.198 C474.76,397.128 474.76,401.876 471.831,404.805 L455.705,420.93 L455.705,489.501 C455.704,501.905 445.611,511.999 433.204,511.999 Z M222.202,241.999 L222.2,440.832 C262.915,424.012 317.426,388.18 332.28,362.694 C333.445,360.694 334.614,358.52 335.768,356.21 C335.725,355.646 335.704,355.074 335.704,354.499 L335.704,279.499 C335.704,267.093 345.798,256.999 358.204,256.999 L364.605,256.999 C365.537,252.118 366.453,247.106 367.345,241.999 L222.202,241.999 Z M379.872,256.999 L395.149,256.999 C396.053,252.104 396.941,247.094 397.805,241.999 L382.57,241.999 C381.692,247.096 380.79,252.106 379.872,256.999 Z M222.202,226.999 L336.989,226.999 C336.157,224.652 335.704,222.127 335.704,219.499 L335.704,144.499 C335.704,132.093 345.798,121.999 358.204,121.999 L382.431,121.999 C382.993,114.892 383.45,108.198 383.784,102.205 C357.531,89.81 309.013,71.041 222.205,48.054 L222.202,226.999 Z M59.508,226.999 L207.202,226.999 L207.204,48.054 C120.397,71.041 71.876,89.812 45.623,102.206 C47.258,131.871 51.858,179.4 59.508,226.999 Z" id="Shape"></path>
        </g>
    </g>
</svg>