<svg clip-rule="evenodd" fill-rule="evenodd" stroke-linejoin="round" stroke-miterlimit="2" viewBox="0 0 24 24" xmlns="http://www.w3.org/2000/svg"><g id="Icon"><path fill="currentColor" d="m13.25 4.107c-.966 0-1.75.784-1.75 1.75v4.857c0 .967.784 1.75 1.75 1.75h6c.464 0 .909-.184 1.237-.512.329-.328.513-.774.513-1.238 0-1.043 0-2.67 0-3.714 0-.464-.184-.909-.513-1.237-.328-.329-.773-.513-1.237-.513h-1.963c-.06 0-.118-.021-.163-.06l-.772-.662c-.317-.271-.721-.421-1.139-.421-.47 0-1.301 0-1.963 0zm0 1.5h1.963c.06 0 .118.021.163.06l.772.662c.317.272.721.421 1.139.421h1.963c.066 0 .13.026.177.073s.073.111.073.177v3.714c0 .067-.026.13-.073.177s-.111.073-.177.073h-6c-.138 0-.25-.112-.25-.25v-4.857c0-.138.112-.25.25-.25z"/><path fill="currentColor" d="m13.25 14.393c-.966 0-1.75.783-1.75 1.75v4.857c0 .967.784 1.75 1.75 1.75h6c.464 0 .909-.184 1.237-.513.329-.328.513-.773.513-1.237 0-1.044 0-2.671 0-3.714 0-.464-.184-.91-.513-1.238-.328-.328-.773-.512-1.237-.512h-1.963c-.06 0-.118-.022-.163-.06l-.772-.662c-.317-.272-.721-.421-1.139-.421-.47 0-1.301 0-1.963 0zm0 1.5h1.963c.06 0 .118.021.163.06l.772.661c.317.272.721.422 1.139.422h1.963c.066 0 .13.026.177.073s.073.11.073.177v3.714c0 .066-.026.13-.073.177s-.111.073-.177.073h-6c-.138 0-.25-.112-.25-.25v-4.857c0-.138.112-.25.25-.25z"/><path fill="currentColor" d="m9.75 18.25h-4c-.69 0-1.25-.56-1.25-1.25 0-4.494 0-15 0-15 0-.414-.336-.75-.75-.75s-.75.336-.75.75v15c0 1.519 1.231 2.75 2.75 2.75h4c.414 0 .75-.336.75-.75s-.336-.75-.75-.75z"/><path fill="currentColor" d="m9.75 7.75h-6c-.414 0-.75.336-.75.75s.336.75.75.75h6c.414 0 .75-.336.75-.75s-.336-.75-.75-.75z"/></g></svg>