<?xml version="1.0" encoding="UTF-8"?>
<svg viewBox="0 0 427 427" version="1.1" xmlns="http://www.w3.org/2000/svg" xmlns:xlink="http://www.w3.org/1999/xlink">
    <g id="Page-1" stroke="none" stroke-width="1" fill="none" fill-rule="evenodd">
        <g id="reload" fill="currentColor" fill-rule="nonzero">
            <path d="M405.333333,42.6666667 C393.5424,42.6666667 384,52.2197333 384,64 L384,85.408 C344.388267,32.7061333 281.568,0 213.333333,0 C113.021867,0 27.4581333,68.2389333 5.27146667,165.937067 C2.66666667,177.4272 9.8752,188.864 21.3546667,191.4688 C22.9589333,191.8336 24.5418667,192 26.1034667,192 C35.8336,192 44.6442667,185.290667 46.8949333,175.396267 C64.6250667,97.2501333 133.083733,42.6666667 213.333333,42.6666667 C274.871467,42.6666667 330.7008,76.064 360.8384,128 L320,128 C308.209067,128 298.666667,137.553067 298.666667,149.333333 C298.666667,161.1136 308.209067,170.666667 320,170.666667 L405.333333,170.666667 C417.124267,170.666667 426.666667,161.1136 426.666667,149.333333 L426.666667,64 C426.666667,52.2197333 417.124267,42.6666667 405.333333,42.6666667 Z" id="Path"></path>
            <path d="M21.3333333,384 C33.1242667,384 42.6666667,374.446933 42.6666667,362.666667 L42.6666667,340.795733 C82.4917333,394.346667 144.814933,426.666667 213.333333,426.666667 C313.6448,426.666667 399.208533,358.427733 421.3952,260.7296 C424,249.239467 416.791467,237.802667 405.312,235.197867 C393.7088,232.520533 382.3744,239.780267 379.7696,251.2704 C362.0416,329.416533 293.582933,384 213.333333,384 C151.773867,384 96.4693333,351.413333 65.9605333,298.666667 L106.666667,298.666667 C118.4576,298.666667 128,289.1136 128,277.333333 C128,265.553067 118.4576,256 106.666667,256 L21.3333333,256 C9.5424,256 0,265.553067 0,277.333333 L0,362.666667 C0,374.446933 9.5424,384 21.3333333,384 Z" id="Path"></path>
        </g>
    </g>
</svg>