<?xml version="1.0" encoding="UTF-8"?>
<svg xmlns="http://www.w3.org/2000/svg" data-name="Layer 1" viewBox="0 0 24 24">
	<path fill="currentColor" d="M21.68,9.108L13.204,.723C12.655,.173,11.869-.089,11.098,.013L4.209,.955c-.274,.038-.466,.29-.428,.563,.037,.273,.293,.461,.562,.428l6.889-.942c.46-.066,.934,.095,1.267,.427l8.476,8.385c1.356,1.356,1.363,3.569,.01,4.94l-.19,.199c-.209-.677-.58-1.314-1.114-1.848L11.204,4.723c-.549-.55-1.337-.812-2.106-.709l-6.889,.942c-.228,.031-.404,.213-.43,.44l-.765,6.916c-.083,.759,.179,1.503,.72,2.044l8.417,8.326c.85,.85,1.979,1.318,3.181,1.318h.014c1.208-.004,2.341-.479,3.189-1.339l3.167-3.208c.886-.898,1.317-2.081,1.292-3.257l.708-.743c1.732-1.754,1.724-4.6-.022-6.345Zm-2.688,9.643l-3.167,3.208c-.66,.669-1.542,1.039-2.481,1.042h-.011c-.935,0-1.812-.364-2.476-1.027L2.439,13.646c-.324-.324-.48-.77-.431-1.225l.722-6.528,6.502-.889c.462-.063,.934,.095,1.267,.427l8.476,8.385c1.356,1.356,1.363,3.569,.017,4.934ZM8,10c0,.552-.448,1-1,1s-1-.448-1-1,.448-1,1-1,1,.448,1,1Z"/>
</svg>
