<?xml version="1.0" encoding="UTF-8"?>
<svg viewBox="0 0 314 214" version="1.1" xmlns="http://www.w3.org/2000/svg" xmlns:xlink="http://www.w3.org/1999/xlink">
    <g id="Page-1" stroke="none" stroke-width="1" fill="none" fill-rule="evenodd">
        <g id="ticket" fill="currentColor" fill-rule="nonzero">
            <path d="M306.700001,67.6000011 C308.556842,67.6010631 310.337936,66.8639063 311.650921,65.5509213 C312.963906,64.2379364 313.700002,62.4568419 313.700002,60.6000011 L313.700002,7 C313.700002,5.14316036 312.963906,3.36206588 311.650921,2.04908096 C310.337936,0.736096036 308.556842,2.84217094e-14 306.700001,2.84217094e-14 L7,2.84217094e-14 C5.14316036,2.84217094e-14 3.36206588,0.736096036 2.04908096,2.04908096 C0.736096036,3.36206588 -2.84217094e-14,5.14316036 -2.84217094e-14,7 L-2.84217094e-14,60.6000011 C-2.84217094e-14,62.4568419 0.736096036,64.2379364 2.04908096,65.5509213 C3.36206588,66.8639063 5.14316036,67.6010631 7,67.6000011 C28.7379289,67.6000011 46.3600011,85.2220734 46.3600011,106.960001 C46.3600011,128.697929 28.7379289,146.320001 7,146.320001 C5.14316036,146.318939 3.36206588,147.056096 2.04908096,148.369081 C0.736096036,149.682066 -2.84217094e-14,151.46316 -2.84217094e-14,153.320001 L-2.84217094e-14,206.920001 C-2.84217094e-14,208.776842 0.736096036,210.557936 2.04908096,211.870921 C3.36206588,213.183906 5.14316036,213.920002 7,213.920002 L306.700001,213.920002 C308.556842,213.920002 310.337936,213.183906 311.650921,211.870921 C312.963906,210.557936 313.700002,208.776842 313.700002,206.920001 L313.700002,153.320001 C313.700002,151.46316 312.963906,149.682066 311.650921,148.369081 C310.337936,147.056096 308.556842,146.318939 306.700001,146.320001 C284.962073,146.320001 267.340001,128.697929 267.340001,106.960001 C267.340001,85.2220734 284.962073,67.6000011 306.700001,67.6000011 L306.700001,67.6000011 Z M253.340001,106.960001 C253.374257,133.712317 273.183714,156.318002 299.700001,159.864001 L299.700001,199.928001 L120.848001,199.928001 L120.848001,186.928001 C120.848001,183.062008 117.713994,179.928001 113.848001,179.928001 C109.982008,179.928001 106.848001,183.062008 106.848001,186.928001 L106.848001,199.928001 L14.0000011,199.928001 L14.0000011,159.864001 C40.5274916,156.34292 60.3458784,133.720154 60.3458784,106.960001 C60.3458784,80.1998486 40.5274916,57.5770826 14.0000011,54.0560011 L14.0000011,13.9920011 L106.848001,13.9920011 L106.848001,26.9920011 C106.848001,30.8579944 109.982008,33.9920011 113.848001,33.9920011 C117.713994,33.9920011 120.848001,30.8579944 120.848001,26.9920011 L120.848001,13.9920011 L299.700001,13.9920011 L299.700001,54.0560011 C273.183714,57.6020005 253.374257,80.2076853 253.340001,106.960001 L253.340001,106.960001 Z" id="Shape"></path>
            <path d="M113.848,115.956001 C111.990792,115.956001 110.209709,116.694048 108.896839,118.007668 C107.583969,119.321288 106.84694,121.102793 106.848,122.960001 L106.848,154.960001 C106.848,158.825994 109.982008,161.960001 113.848,161.960001 C117.713994,161.960001 120.848,158.825994 120.848,154.960001 L120.848,122.960001 C120.849062,121.102793 120.112033,119.321288 118.799163,118.007668 C117.486294,116.694048 115.70521,115.956001 113.848,115.956001 L113.848,115.956001 Z" id="Path"></path>
            <path d="M113.848001,51.9800011 C109.982008,51.9800011 106.848001,55.1140079 106.848001,58.9800011 L106.848001,90.9800011 C106.851574,93.4808603 108.189068,95.7898434 110.356661,97.037179 C112.524255,98.2845145 115.19264,98.2807025 117.356661,97.027179 C119.520683,95.7736554 120.851574,93.4608603 120.848001,90.9600011 L120.848001,58.9600011 C120.836978,55.1018207 117.706197,51.9800011 113.848001,51.9800011 L113.848001,51.9800011 Z" id="Path"></path>
        </g>
    </g>
</svg>