<?xml version="1.0" encoding="UTF-8"?>
<svg viewBox="0 0 384 470" version="1.1" xmlns="http://www.w3.org/2000/svg" xmlns:xlink="http://www.w3.org/1999/xlink">
    <g id="Page-1" stroke="none" stroke-width="1" fill="none" fill-rule="evenodd">
        <g id="delete" fill="currentColor" fill-rule="nonzero">
            <path d="M341.333333,128 C329.551259,128 320,137.551259 320,149.333333 L320,388.074667 C318.726183,410.529608 299.584596,427.757036 277.12,426.666667 L106.88,426.666667 C84.4154039,427.757036 65.2738172,410.529608 64,388.074667 L64,149.333333 C63.9999996,137.551259 54.4487411,128 42.6666667,128 C30.8845923,128 21.3333333,137.551259 21.3333333,149.333333 L21.3333333,388.074667 C22.6011339,434.099423 60.850894,470.431926 106.88,469.333333 L277.12,469.333333 C323.149106,470.431926 361.398866,434.099423 362.666667,388.074667 L362.666667,149.333333 C362.666667,137.551259 353.115408,128 341.333333,128 Z" id="Path"></path>
            <path d="M362.666667,64 L277.333333,64 L277.333333,21.3333333 C277.333333,9.55125867 267.782075,0 256,0 L128,0 C116.217925,0 106.666667,9.55125867 106.666667,21.3333333 L106.666667,64 L21.3333333,64 C9.55125867,64 0,73.5512587 0,85.3333333 C0,97.115408 9.55125867,106.666667 21.3333333,106.666667 L362.666667,106.666667 C374.448741,106.666667 384,97.115408 384,85.3333333 C384,73.5512587 374.448741,64 362.666667,64 Z M149.333333,64 L149.333333,42.6666667 L234.666667,42.6666667 L234.666667,64 L149.333333,64 Z" id="Shape"></path>
            <path d="M170.666667,341.333333 L170.666667,192 C170.666667,180.217925 161.115408,170.666667 149.333333,170.666667 C137.551259,170.666667 128,180.217925 128,192 L128,341.333333 C128,353.115408 137.551259,362.666667 149.333333,362.666667 C161.115408,362.666667 170.666667,353.115408 170.666667,341.333333 Z" id="Path"></path>
            <path d="M256,341.333333 L256,192 C256,180.217925 246.448741,170.666667 234.666667,170.666667 C222.884592,170.666667 213.333333,180.217925 213.333333,192 L213.333333,341.333333 C213.333333,353.115408 222.884592,362.666667 234.666667,362.666667 C246.448741,362.666667 256,353.115408 256,341.333333 Z" id="Path"></path>
        </g>
    </g>
</svg>