<?xml version="1.0" encoding="UTF-8"?>
<svg viewBox="0 0 427 387" version="1.1" xmlns="http://www.w3.org/2000/svg" xmlns:xlink="http://www.w3.org/1999/xlink">
    <title>password</title>
    <g id="Page-1" stroke="none" stroke-width="1" fill="none" fill-rule="evenodd">
        <g id="password" transform="translate(0.000000, 0.000000)" fill="currentColor" fill-rule="nonzero">
            <path d="M396.714667,207.445333 L304.128,207.445333 L304.128,120.234667 C304.128,108.970667 294.997333,99.84 283.733333,99.84 L272.298667,99.84 L162.901333,99.84 L162.901333,67.4986667 C162.901333,39.68 185.514667,17.0666667 213.333333,17.0666667 C241.152,17.0666667 263.765333,39.68 263.765333,67.4986667 C263.765333,72.192 267.605333,76.032 272.298667,76.032 C276.992,76.032 280.832,72.192 280.832,67.4986667 C280.832,30.2933333 250.538667,0 213.333333,0 C176.128,0 145.834667,30.2933333 145.834667,67.4986667 L145.834667,99.84 L142.933333,99.84 C131.669333,99.84 122.538667,108.970667 122.538667,120.234667 L122.538667,207.445333 L29.952,207.445333 C13.3973333,207.445333 0,220.928 0,237.397333 L0,356.352 C0,372.821333 13.3973333,386.304 29.952,386.304 L396.714667,386.304 C413.184,386.304 426.666667,372.906667 426.666667,356.352 L426.666667,237.397333 C426.666667,220.928 413.269333,207.445333 396.714667,207.445333 L396.714667,207.445333 Z M139.605333,120.234667 C139.605333,118.357333 141.141333,116.906667 142.933333,116.906667 L154.368,116.906667 L272.298667,116.906667 L283.733333,116.906667 C285.610667,116.906667 287.061333,118.442667 287.061333,120.234667 L287.061333,220.074667 C287.061333,221.952 285.525333,223.402667 283.733333,223.402667 L142.933333,223.402667 C141.056,223.402667 139.605333,221.866667 139.605333,220.074667 L139.605333,120.234667 Z M409.6,356.352 C409.6,363.434667 403.797333,369.237333 396.714667,369.237333 L29.952,369.237333 C22.8693333,369.237333 17.0666667,363.434667 17.0666667,356.352 L17.0666667,237.397333 C17.0666667,230.314667 22.8693333,224.512 29.952,224.512 L123.050667,224.512 C125.098667,233.642667 133.205333,240.469333 142.933333,240.469333 L283.733333,240.469333 C293.461333,240.469333 301.568,233.642667 303.616,224.512 L396.714667,224.512 C403.797333,224.512 409.6,230.314667 409.6,237.397333 L409.6,356.352 Z" id="Shape"></path>
            <path d="M124.586667,288.341333 L107.093333,288.341333 L115.797333,273.237333 C118.186667,269.141333 116.736,263.936 112.64,261.546667 C108.544,259.157333 103.338667,260.608 100.949333,264.704 L92.2453333,279.808 L83.5413333,264.704 C81.152,260.608 75.9466667,259.242667 71.8506667,261.546667 C67.7546667,263.850667 66.3893333,269.141333 68.6933333,273.237333 L77.3973333,288.341333 L59.904,288.341333 C55.2106667,288.341333 51.3706667,292.181333 51.3706667,296.874667 C51.3706667,301.568 55.2106667,305.408 59.904,305.408 L77.3973333,305.408 L68.6933333,320.512 C66.304,324.608 67.7546667,329.813333 71.8506667,332.202667 C73.216,332.970667 74.6666667,333.312 76.1173333,333.312 C79.104,333.312 81.92,331.776 83.5413333,329.045333 L92.2453333,313.941333 L100.949333,329.045333 C102.570667,331.776 105.386667,333.312 108.373333,333.312 C109.824,333.312 111.274667,332.970667 112.64,332.202667 C116.736,329.813333 118.101333,324.608 115.797333,320.512 L107.093333,305.408 L124.586667,305.408 C129.28,305.408 133.12,301.568 133.12,296.874667 C133.12,292.181333 129.28,288.341333 124.586667,288.341333 Z" id="Path"></path>
            <path d="M245.589333,288.341333 L228.096,288.341333 L236.8,273.237333 C239.189333,269.141333 237.738667,263.936 233.642667,261.546667 C229.546667,259.157333 224.341333,260.608 221.952,264.704 L213.333333,279.808 L204.629333,264.704 C202.24,260.608 197.034667,259.242667 192.938667,261.546667 C188.842667,263.936 187.477333,269.141333 189.781333,273.237333 L198.485333,288.341333 L180.992,288.341333 C176.298667,288.341333 172.458667,292.181333 172.458667,296.874667 C172.458667,301.568 176.298667,305.408 180.992,305.408 L198.485333,305.408 L189.781333,320.512 C187.392,324.608 188.842667,329.813333 192.938667,332.202667 C194.304,332.970667 195.754667,333.312 197.205333,333.312 C200.192,333.312 203.008,331.776 204.629333,329.045333 L213.333333,313.941333 L222.037333,329.045333 C223.658667,331.776 226.474667,333.312 229.461333,333.312 C230.912,333.312 232.362667,332.970667 233.728,332.202667 C237.824,329.813333 239.189333,324.608 236.885333,320.512 L228.181333,305.408 L245.674667,305.408 C250.368,305.408 254.208,301.568 254.208,296.874667 C254.208,292.181333 250.282667,288.341333 245.589333,288.341333 Z" id="Path"></path>
            <path d="M366.592,288.341333 L349.098667,288.341333 L357.802667,273.237333 C360.192,269.141333 358.741333,263.936 354.645333,261.546667 C350.549333,259.157333 345.344,260.608 342.954667,264.704 L334.250667,279.808 L325.546667,264.704 C323.157333,260.608 317.952,259.242667 313.856,261.546667 C309.76,263.936 308.394667,269.141333 310.698667,273.237333 L319.402667,288.341333 L302.08,288.341333 C297.386667,288.341333 293.546667,292.181333 293.546667,296.874667 C293.546667,301.568 297.386667,305.408 302.08,305.408 L319.573333,305.408 L310.869333,320.512 C308.48,324.608 309.930667,329.813333 314.026667,332.202667 C315.392,332.970667 316.842667,333.312 318.293333,333.312 C321.28,333.312 324.096,331.776 325.717333,329.045333 L334.421333,313.941333 L343.125333,329.045333 C344.746667,331.776 347.562667,333.312 350.549333,333.312 C352,333.312 353.450667,332.970667 354.816,332.202667 C358.912,329.813333 360.277333,324.608 357.973333,320.512 L349.269333,305.408 L366.762667,305.408 C371.456,305.408 375.296,301.568 375.296,296.874667 C375.296,292.181333 371.285333,288.341333 366.592,288.341333 L366.592,288.341333 Z" id="Path"></path>
        </g>
    </g>
</svg>