<?xml version="1.0" encoding="UTF-8"?>
<svg viewBox="0 0 512 425" version="1.1" xmlns="http://www.w3.org/2000/svg" xmlns:xlink="http://www.w3.org/1999/xlink">
    <g id="Page-1" stroke="none" stroke-width="1" fill="none" fill-rule="evenodd">
        <g id="group" transform="translate(0.000000, 0.000000)" fill="currentColor" fill-rule="nonzero">
            <path d="M437,224.423 L386.882,224.423 C380.061,224.423 373.457,225.355 367.172,227.069 C354.774,202.697 329.462,185.951 300.295,185.951 L211.705,185.951 C182.538,185.951 157.226,202.697 144.828,227.069 C138.543,225.355 131.939,224.423 125.118,224.423 L75,224.423 C33.645,224.423 0,258.068 0,299.423 L0,379.541 C0,404.354 20.187,424.541 45,424.541 L467,424.541 C491.813,424.541 512,404.354 512,379.541 L512,299.423 C512,258.068 478.355,224.423 437,224.423 Z M136.705,260.953 L136.705,394.542 L45,394.542 C36.729,394.542 30,387.813 30,379.542 L30,299.424 C30,274.611 50.187,254.424 75,254.424 L125.118,254.424 C129.19,254.424 133.133,254.977 136.887,255.996 C136.779,257.637 136.705,259.287 136.705,260.953 Z M345.295,394.542 L166.705,394.542 L166.705,260.952 C166.705,236.139 186.892,215.952 211.705,215.952 L300.295,215.952 C325.108,215.952 345.295,236.139 345.295,260.952 L345.295,394.542 Z M482,379.542 C482,387.813 475.271,394.542 467,394.542 L375.295,394.542 L375.295,260.952 C375.295,259.285 375.221,257.635 375.113,255.995 C378.867,254.977 382.81,254.423 386.882,254.423 L437,254.423 C461.813,254.423 482,274.61 482,299.423 L482,379.542 Z" id="Shape"></path>
            <path d="M100.06,82.775 C63.311,82.775 33.414,112.672 33.414,149.421 C33.414,186.17 63.311,216.067 100.06,216.067 C136.808,216.067 166.706,186.17 166.706,149.421 C166.706,112.672 136.809,82.775 100.06,82.775 Z M100.059,186.067 C79.852,186.067 63.413,169.628 63.413,149.421 C63.413,129.214 79.852,112.775 100.059,112.775 C120.266,112.775 136.705,129.214 136.705,149.421 C136.705,169.628 120.266,186.067 100.059,186.067 Z" id="Shape"></path>
            <path d="M256,1.42108547e-14 C206.904,1.42108547e-14 166.962,39.942 166.962,89.038 C166.962,138.134 206.904,178.076 256,178.076 C305.096,178.076 345.038,138.134 345.038,89.038 C345.038,39.943 305.096,1.42108547e-14 256,1.42108547e-14 Z M256,148.076 C223.446,148.076 196.962,121.592 196.962,89.038 C196.962,56.485 223.446,30 256,30 C288.554,30 315.038,56.484 315.038,89.038 C315.038,121.592 288.554,148.076 256,148.076 Z" id="Shape"></path>
            <path d="M411.94,82.775 C375.192,82.775 345.294,112.672 345.294,149.421 C345.294,186.17 375.192,216.067 411.94,216.067 C448.689,216.067 478.586,186.17 478.586,149.421 C478.586,112.672 448.689,82.775 411.94,82.775 Z M411.94,186.067 C391.734,186.067 375.294,169.628 375.294,149.421 C375.295,129.214 391.734,112.775 411.94,112.775 C432.147,112.775 448.586,129.214 448.586,149.421 C448.586,169.628 432.147,186.067 411.94,186.067 Z" id="Shape"></path>
        </g>
    </g>
</svg>