<?xml version="1.0" encoding="UTF-8"?>
<svg viewBox="0 0 464 462" version="1.1" xmlns="http://www.w3.org/2000/svg" xmlns:xlink="http://www.w3.org/1999/xlink">
    <g id="Page-1" stroke="none" stroke-width="1" fill="none" fill-rule="evenodd">
        <g id="bussiness-man" fill="currentColor" fill-rule="nonzero">
            <path d="M256.000403,149.882889 L280.000403,149.882889 C284.418681,149.882889 288.000403,146.301167 288.000403,141.882889 C288.000403,137.464611 284.418681,133.882889 280.000403,133.882889 L256.000403,133.882889 C251.582125,133.882889 248.000403,137.464611 248.000403,141.882889 C248.000403,146.301167 251.582125,149.882889 256.000403,149.882889 Z" id="Path"></path>
            <circle id="Oval" cx="266.000403" cy="167.882889" r="10"></circle>
            <path d="M216.000403,141.882889 C216.000403,137.464611 212.418681,133.882889 208.000403,133.882889 L184.000403,133.882889 C179.582125,133.882889 176.000403,137.464611 176.000403,141.882889 C176.000403,146.301167 179.582125,149.882889 184.000403,149.882889 L208.000403,149.882889 C212.418681,149.882889 216.000403,146.301167 216.000403,141.882889 Z" id="Path"></path>
            <circle id="Oval" cx="198.000403" cy="167.882889" r="10"></circle>
            <path d="M248.000403,229.882889 L216.000403,229.882889 C211.582125,229.882889 208.000403,233.464611 208.000403,237.882889 C208.000403,242.301167 211.582125,245.882889 216.000403,245.882889 L248.000403,245.882889 C252.418681,245.882889 256.000403,242.301167 256.000403,237.882889 C256.000403,233.464611 252.418681,229.882889 248.000403,229.882889 Z" id="Path"></path>
            <path d="M40.5404035,376.668889 C20.5849541,386.648852 6.79353681,405.7818 3.63440346,427.868889 L0.0804034573,452.751889 C-0.247463095,455.047723 0.437083103,457.372852 1.95665848,459.124777 C3.47623385,460.876702 5.68127667,461.882889 8.00040346,461.882889 L456.000403,461.882889 C458.31953,461.882889 460.524573,460.876702 462.044148,459.124777 C463.563724,457.372852 464.24827,455.047723 463.920403,452.751889 L460.366403,427.871889 C457.20727,405.7848 443.415853,386.651852 423.460403,376.671889 L280.000403,304.938889 L280.000403,285.682889 C291.275446,277.029514 300.001568,265.489126 305.255403,252.282889 C311.234008,237.359822 315.44045,221.786623 317.788403,205.882889 L323.056403,205.882889 C334.030126,205.920248 344.070406,199.714884 348.944403,189.882889 C350.948894,185.862078 351.994892,181.431646 352.000403,176.938889 L352.000403,162.826889 C352.003553,155.354926 349.106032,148.173505 343.918403,142.795889 L348.104403,126.161889 C356.006334,94.6875854 348.144231,61.3359096 327.016403,36.7048889 C305.071617,7.59832142 268.040696,-5.84990259 232.532403,2.39188889 C227.232403,3.62888889 221.944403,4.85788889 216.902403,6.02888889 C194.187717,11.2679646 174.683791,25.7359188 163.080403,45.9538889 C147.76856,46.7903498 133.605429,54.3386288 124.373403,66.5828889 C116.104039,77.5468873 112.564399,91.3633637 114.543403,104.952889 L119.966403,142.914889 C114.849558,148.281051 111.996674,155.412188 112.000403,162.826889 L112.000403,176.938889 C112.005915,181.431646 113.051913,185.862078 115.056403,189.882889 C119.930401,199.714884 129.97068,205.920248 140.944403,205.882889 L146.212403,205.882889 C148.560356,221.786623 152.766798,237.359822 158.745403,252.282889 C163.999239,265.489126 172.725361,277.029514 184.000403,285.682889 L184.000403,304.938889 L40.5404035,376.668889 Z M64.0004035,445.882889 L64.0004035,421.882889 C64.0004035,417.464611 60.4186815,413.882889 56.0004035,413.882889 C51.5821255,413.882889 48.0004035,417.464611 48.0004035,421.882889 L48.0004035,445.882889 L17.2244035,445.882889 L19.4744035,430.135889 C21.8916489,413.245234 32.4393529,398.614247 47.7004035,390.982889 L158.426403,335.619889 L122.026403,376.571889 C120.12492,378.710529 119.510616,381.701971 120.415403,384.416889 L140.900403,445.882889 L64.0004035,445.882889 Z M176.000403,365.882889 L176.000403,445.882889 L157.766403,445.882889 L137.052403,383.740889 L176.000403,339.924889 L176.000403,365.882889 Z M416.300403,390.982889 C431.560705,398.615829 442.106919,413.247944 444.522403,430.138889 L446.776403,445.882889 L416.000403,445.882889 L416.000403,421.882889 C416.000403,417.464611 412.418681,413.882889 408.000403,413.882889 C403.582125,413.882889 400.000403,417.464611 400.000403,421.882889 L400.000403,445.882889 L323.100403,445.882889 L343.590403,384.412889 C344.495191,381.697971 343.880887,378.706529 341.979403,376.567889 L305.579403,335.615889 L416.300403,390.982889 Z M288.000403,365.882889 L288.000403,339.924889 L326.948403,383.740889 L306.234403,445.882889 L288.000403,445.882889 L288.000403,365.882889 Z M200.840403,445.882889 L192.000403,445.882889 L192.000403,370.826889 L202.184403,365.734889 L207.855403,382.746889 L200.840403,445.882889 Z M217.240403,340.318889 L192.000403,352.938889 L192.000403,335.182889 L195.961403,323.299889 L217.240403,340.318889 Z M200.000403,306.037889 L200.000403,295.167889 C220.394215,304.121801 243.606592,304.121801 264.000403,295.167889 L264.000403,306.037889 L232.000403,331.637889 L200.000403,306.037889 Z M216.938403,445.882889 L223.160403,389.882889 L240.840403,389.882889 L247.062403,445.882889 L216.938403,445.882889 Z M242.238403,373.882889 L221.766403,373.882889 L216.641403,358.506889 L232.000403,350.826889 L247.359403,358.506889 L242.238403,373.882889 Z M272.000403,445.882889 L263.160403,445.882889 L256.145403,382.746889 L261.816403,365.734889 L272.000403,370.826889 L272.000403,445.882889 Z M272.000403,352.938889 L246.761403,340.318889 L268.039403,323.297889 L272.000403,335.182889 L272.000403,352.938889 Z M336.000403,176.938889 C335.997698,178.948089 335.530173,180.92942 334.634403,182.727889 C332.453943,187.12441 327.963902,189.899177 323.056403,189.88296 L319.513403,189.88296 C319.833403,185.183556 319.995737,180.462556 320.000403,175.719889 L320.000403,149.882889 L323.056403,149.882889 C330.201751,149.891155 335.992138,155.681542 336.000403,162.826889 L336.000403,176.938889 Z M140.944403,189.88296 C136.036905,189.899177 131.546864,187.12441 129.366403,182.727889 C128.470633,180.92942 128.003109,178.948089 128.000403,176.938889 L128.000403,162.826889 C128.008669,155.681542 133.799056,149.891155 140.944403,149.882889 L144.000403,149.882889 L144.000403,175.719889 C144.000403,180.461889 144.162737,185.182889 144.487403,189.88296 L140.944403,189.88296 Z M145.107403,113.820889 C144.383026,115.052051 144.00084,116.454434 144.000403,117.882889 L144.000403,133.882889 L140.944403,133.882889 C138.922799,133.88325 136.906796,134.095408 134.929403,134.515889 L130.383403,102.691889 C129.015056,93.3039492 131.460127,83.7588085 137.173403,76.1848889 C143.942959,67.2044388 154.52731,61.9122636 165.773403,61.8848889 L167.900403,61.8848889 C170.930725,61.8851647 173.701092,60.1732357 175.056403,57.4628889 C184.095066,39.3211654 200.771927,26.1711494 220.521403,21.6128889 C225.567403,20.4418889 230.855403,19.2128889 236.163403,17.9748889 C265.590054,11.1497848 296.270531,22.3483276 314.381403,46.5248889 C314.491403,46.6718889 314.606403,46.8138889 314.726403,46.9528889 C332.579503,67.652526 339.242945,95.7451519 332.588403,122.257889 L329.480403,134.610889 C327.373055,134.128617 325.218231,133.884422 323.056403,133.882889 L320.000403,133.882889 L320.000403,117.882889 C320.000403,113.464611 316.418681,109.882889 312.000403,109.882889 L273.087403,109.882889 C238.735382,109.796633 205.84002,95.9964855 181.708403,71.5478889 C179.965717,69.7732121 177.49673,68.910051 175.027918,69.2123825 C172.559107,69.5147139 170.371361,70.94814 169.108403,73.0908889 L145.107403,113.820889 Z M173.600403,246.344889 C164.59631,223.888389 159.979699,199.914261 160.000334,175.719889 L160.000334,120.064889 L177.800403,89.8648889 C204.164028,112.995468 238.01525,125.791058 273.087403,125.882889 L304.000473,125.882889 L304.000473,175.719889 C304.021108,199.914261 299.404497,223.888389 290.400403,246.344889 C280.84742,270.223838 257.71934,285.881456 232.000403,285.881456 C206.281467,285.881456 183.153387,270.223838 173.600403,246.344889 L173.600403,246.344889 Z" id="Shape"></path>
            <path d="M216.000403,205.882889 C216.000403,210.301167 219.582125,213.882889 224.000403,213.882889 L240.000403,213.882889 C244.418681,213.882889 248.000403,210.301167 248.000403,205.882889 C248.000403,201.464611 244.418681,197.882889 240.000403,197.882889 L232.000403,197.882889 L232.000403,181.882889 C232.000403,177.464611 228.418681,173.882889 224.000403,173.882889 C219.582125,173.882889 216.000403,177.464611 216.000403,181.882889 L216.000403,205.882889 Z" id="Path"></path>
        </g>
    </g>
</svg>