<?xml version="1.0" encoding="UTF-8"?>
<svg viewBox="0 0 512 512" version="1.1" xmlns="http://www.w3.org/2000/svg" xmlns:xlink="http://www.w3.org/1999/xlink">
    <title>grid</title>
    <g id="Page-1" stroke="none" stroke-width="1" fill="none" fill-rule="evenodd">
        <g id="grid" fill="currentColor" fill-rule="nonzero">
            <path d="M32.832,192 L233.834667,192 C251.962403,191.988233 266.654899,177.295736 266.666667,159.168 L266.666667,32.832 C266.654899,14.7042636 251.962403,0.0117674405 233.834667,0 L32.832,0 C14.7042636,0.0117674405 0.0117674405,14.7042636 -3.64745271e-15,32.832 L-3.64745271e-15,159.168 C0.0117674405,177.295736 14.7042636,191.988233 32.832,192 Z M21.3333333,32.832 C21.3450737,26.4863312 26.4863312,21.3450737 32.832,21.3333333 L233.834667,21.3333333 C240.180336,21.3450737 245.321593,26.4863312 245.333333,32.832 L245.333333,159.168 C245.321593,165.513669 240.180336,170.654926 233.834667,170.666667 L32.832,170.666667 C26.4863312,170.654926 21.3450737,165.513669 21.3333333,159.168 L21.3333333,32.832 Z M32.832,512 L159.168,512 C177.295736,511.988233 191.988233,497.295736 192,479.168 L192,278.165333 C191.988233,260.037597 177.295736,245.345101 159.168,245.333333 L32.832,245.333333 C14.7042636,245.345101 0.0117674405,260.037597 -3.64745271e-15,278.165333 L-3.64745271e-15,479.168 C0.0117674405,497.295736 14.7042636,511.988233 32.832,512 Z M21.3333333,278.165333 C21.3450737,271.819664 26.4863312,266.678407 32.832,266.666667 L159.168,266.666667 C165.513669,266.678407 170.654926,271.819664 170.666667,278.165333 L170.666667,479.168 C170.654926,485.513669 165.513669,490.654926 159.168,490.666667 L32.832,490.666667 C26.4863312,490.654926 21.3450737,485.513669 21.3333333,479.168 L21.3333333,278.165333 Z M479.168,245.333333 L278.165333,245.333333 C260.037597,245.345101 245.345101,260.037597 245.333333,278.165333 L245.333333,479.168 C245.345101,497.295736 260.037597,511.988233 278.165333,512 L479.168,512 C497.295736,511.988233 511.988233,497.295736 512,479.168 L512,278.165333 C511.988233,260.037597 497.295736,245.345101 479.168,245.333333 Z M490.666667,479.168 C490.654926,485.513669 485.513669,490.654926 479.168,490.666667 L278.165333,490.666667 C271.819664,490.654926 266.678407,485.513669 266.666667,479.168 L266.666667,278.165333 C266.678407,271.819664 271.819664,266.678407 278.165333,266.666667 L479.168,266.666667 C485.513669,266.678407 490.654926,271.819664 490.666667,278.165333 L490.666667,479.168 Z M479.168,0 L352.832,0 C334.704264,0.0117674405 320.011767,14.7042636 320,32.832 L320,159.168 C320.011767,177.295736 334.704264,191.988233 352.832,192 L479.168,192 C497.295736,191.988233 511.988233,177.295736 512,159.168 L512,32.832 C511.988233,14.7042636 497.295736,0.0117674405 479.168,0 Z M490.666667,159.168 C490.654926,165.513669 485.513669,170.654926 479.168,170.666667 L352.832,170.666667 C346.486331,170.654926 341.345074,165.513669 341.333333,159.168 L341.333333,32.832 C341.345074,26.4863312 346.486331,21.3450737 352.832,21.3333333 L479.168,21.3333333 C485.513669,21.3450737 490.654926,26.4863312 490.666667,32.832 L490.666667,159.168 Z" id="Shape"></path>
        </g>
    </g>
</svg>