<svg xmlns="http://www.w3.org/2000/svg" width="27.56" height="26.773" viewBox="0 0 27.56 26.773">
  <g id="settings_4_" data-name="settings (4)" transform="translate(0 33.623) rotate(-90)">
    <g id="Group_6457" data-name="Group 6457" transform="translate(6.85)">
      <path id="Path_5205" data-name="Path 5205" d="M176.855,13.433V.775a.775.775,0,1,0-1.549,0V13.433a3.934,3.934,0,0,0,0,7.712v5.635a.775.775,0,0,0,1.549,0V21.144a3.934,3.934,0,0,0,0-7.712Zm-.775,6.237a2.381,2.381,0,1,1,2.381-2.381A2.383,2.383,0,0,1,176.08,19.67Z" transform="translate(-162.665 0)" fill="#6c7781"/>
      <path id="Path_5206" data-name="Path 5206" d="M11.555,6.937V.775a.775.775,0,1,0-1.549,0V6.937a3.934,3.934,0,0,0,0,7.712v12.13a.775.775,0,0,0,1.549,0V14.643a3.93,3.93,0,0,0,0-7.706Zm-.775,6.237a2.381,2.381,0,1,1,2.381-2.381A2.383,2.383,0,0,1,10.781,13.174Z" transform="translate(-6.85 0)" fill="#6c7781"/>
      <path id="Path_5207" data-name="Path 5207" d="M341.155,6.937V.775a.775.775,0,1,0-1.549,0V6.937a3.934,3.934,0,0,0,0,7.712V26.785a.775.775,0,1,0,1.549,0V14.643a3.93,3.93,0,0,0,0-7.706Zm-.775,6.237a2.381,2.381,0,1,1,2.381-2.381A2.383,2.383,0,0,1,340.38,13.174Z" transform="translate(-317.538 0)" fill="#6c7781"/>
    </g>
  </g>
</svg>
