<svg xmlns="http://www.w3.org/2000/svg" width="15.486" height="20.569" viewBox="0 0 15.486 20.569">
  <g id="flame" transform="translate(-63.168)">
    <path id="Path_3202" data-name="Path 3202" d="M66.274,18.71a14.517,14.517,0,0,1-2.489-3.519,7.978,7.978,0,0,1-.472-4.592,9.9,9.9,0,0,1,1.974-4.248,4.093,4.093,0,0,0,1.03,3,7.139,7.139,0,0,1,1.631-5.922A12.266,12.266,0,0,1,73.183,0a4.23,4.23,0,0,0-.73,4.034,16.819,16.819,0,0,0,1.931,3.819A8.524,8.524,0,0,1,75.844,11.8a13.8,13.8,0,0,0,1.073-2.274,4.494,4.494,0,0,0,.172-2.489,6.382,6.382,0,0,1,1.416,3.09,12.987,12.987,0,0,1,.043,3.648A9.123,9.123,0,0,1,77.3,17.594a7.166,7.166,0,0,1-3.733,2.789A8.486,8.486,0,0,1,66.274,18.71Z" transform="translate(0)" fill="#f3705a"/>
    <path id="Path_3203" data-name="Path 3203" d="M153.8,227.1c3.519,1.373,6.995-2.789,5.064-6.008,0-.043-.043-.043-.043-.086a4.334,4.334,0,0,1-1.073,3.776,4.008,4.008,0,0,0-.386-3.261c-.515-.987-1.244-1.888-1.8-2.832a4.562,4.562,0,0,1-.73-3.218,5.659,5.659,0,0,0-2.06,3.176,5.744,5.744,0,0,0,.429,3.776,2.82,2.82,0,0,1-1.159-2.06,4.419,4.419,0,0,0-1.073,2.961A4.371,4.371,0,0,0,153.8,227.1Z" transform="translate(-84.26 -206.799)" fill="#ffd15c"/>
  </g>
</svg>
