<svg xmlns="http://www.w3.org/2000/svg" width="24" height="32.471" viewBox="0 0 24 32.471">
  <g id="text-document" transform="translate(-61.381)">
    <path id="Path_166" data-name="Path 166" d="M79.714,0H63.372a1.994,1.994,0,0,0-1.991,1.991V30.479a1.993,1.993,0,0,0,1.991,1.992H83.39a1.993,1.993,0,0,0,1.991-1.992V6.157Zm.47,2.98,2.484,2.7H80.184Zm3.525,27.5a.321.321,0,0,1-.32.319H63.372a.32.32,0,0,1-.319-.319V1.991a.319.319,0,0,1,.319-.318H78.511V6.515a.836.836,0,0,0,.837.835h4.361ZM66,8.893H80.2a.626.626,0,0,1,0,1.253H66a.626.626,0,0,1,0-1.253ZM80.829,13.73a.627.627,0,0,1-.626.626H66A.626.626,0,0,1,66,13.1H80.2A.627.627,0,0,1,80.829,13.73Zm0,4.072a.627.627,0,0,1-.626.626H66a.626.626,0,0,1,0-1.253H80.2A.627.627,0,0,1,80.829,17.8Zm0,4.141a.627.627,0,0,1-.626.626H66a.626.626,0,0,1,0-1.253H80.2A.627.627,0,0,1,80.829,21.943Z" fill="#6c7781"/>
  </g>
</svg>
