<svg xmlns="http://www.w3.org/2000/svg" xmlns:xlink="http://www.w3.org/1999/xlink" version="1.1" x="0px" y="0px" viewBox="0 0 100 100" style="enable-background:new 0 0 100 100;" xml:space="preserve"><circle cx="57.5" cy="7.5" r="2.5"></circle><circle cx="67.5" cy="7.5" r="2.5"></circle><circle cx="77.5" cy="7.5" r="2.5"></circle><circle cx="87.5" cy="7.5" r="2.5"></circle><circle cx="87.5" cy="17.5" r="2.5"></circle><circle cx="87.5" cy="27.5" r="2.5"></circle><circle cx="87.5" cy="37.5" r="2.5"></circle><circle cx="87.5" cy="57.5" r="2.5"></circle><circle cx="87.5" cy="67.5" r="2.5"></circle><circle cx="87.5" cy="77.5" r="2.5"></circle><circle cx="87.5" cy="87.5" r="2.5"></circle><circle cx="77.5" cy="87.5" r="2.5"></circle><circle cx="67.5" cy="87.5" r="2.5"></circle><circle cx="57.5" cy="87.5" r="2.5"></circle><circle cx="37.5" cy="87.5" r="2.5"></circle><circle cx="27.5" cy="87.5" r="2.5"></circle><circle cx="17.5" cy="87.5" r="2.5"></circle><circle cx="7.5" cy="87.5" r="2.5"></circle><circle cx="7.5" cy="77.5" r="2.5"></circle><circle cx="7.5" cy="67.5" r="2.5"></circle><circle cx="7.5" cy="57.5" r="2.5"></circle><circle cx="7.5" cy="37.5" r="2.5"></circle><circle cx="7.5" cy="27.5" r="2.5"></circle><circle cx="7.5" cy="17.5" r="2.5"></circle><circle cx="7.5" cy="7.5" r="2.5"></circle><circle cx="17.5" cy="7.5" r="2.5"></circle><circle cx="27.5" cy="7.5" r="2.5"></circle><circle cx="37.5" cy="7.5" r="2.5"></circle><path d="M87.5,45H50V7.5C50,6.1,48.9,5,47.5,5S45,6.1,45,7.5V45H7.5C6.1,45,5,46.1,5,47.5S6.1,50,7.5,50H45v37.5  c0,1.4,1.1,2.5,2.5,2.5s2.5-1.1,2.5-2.5V50h37.5c1.4,0,2.5-1.1,2.5-2.5S88.9,45,87.5,45z"></path></svg>