<svg xmlns="http://www.w3.org/2000/svg" xmlns:xlink="http://www.w3.org/1999/xlink" version="1.1" x="0px" y="0px" viewBox="0 0 100 100" style="enable-background:new 0 0 100 100;" xml:space="preserve"><circle cx="47.5" cy="17.5" r="2.5"></circle><circle cx="47.5" cy="27.5" r="2.5"></circle><circle cx="47.5" cy="37.5" r="2.5"></circle><circle cx="47.5" cy="57.5" r="2.5"></circle><circle cx="47.5" cy="67.5" r="2.5"></circle><circle cx="47.5" cy="77.5" r="2.5"></circle><circle cx="17.5" cy="47.5" r="2.5"></circle><circle cx="27.5" cy="47.5" r="2.5"></circle><circle cx="37.5" cy="47.5" r="2.5"></circle><circle cx="47.5" cy="47.5" r="2.5"></circle><circle cx="57.5" cy="47.5" r="2.5"></circle><circle cx="67.5" cy="47.5" r="2.5"></circle><circle cx="77.5" cy="47.5" r="2.5"></circle><path d="M87.5,5h-80C6.1,5,5,6.1,5,7.5v80C5,88.9,6.1,90,7.5,90h80c1.4,0,2.5-1.1,2.5-2.5v-80C90,6.1,88.9,5,87.5,5z M85,85H10V10  h75V85z"></path></svg>